<svg width="24" height="24" viewBox="0 0 24 24" fill="none" xmlns="http://www.w3.org/2000/svg">
<path d="M12.5 19.7759C11.8482 19.7759 11.237 19.7537 10.6645 19.7089L7.92735 22.8794C7.71948 23.1202 7.31818 22.9762 7.31818 22.6607V19.0426C4.09531 17.8537 3 15.1947 3 10.888C3 4.79491 5.19231 2 12.5 2C19.8077 2 22 4.79491 22 10.888C22 16.981 19.8077 19.7759 12.5 19.7759Z" fill="white"/>
<path fill-rule="evenodd" clip-rule="evenodd" d="M23 10.8109C23 4.08513 20.5769 1 12.5 1C4.42308 1 2 4.08513 2 10.8109C2 15.5974 3.22722 18.54 6.84615 19.839V22.1035C6.84615 22.937 7.91577 23.3177 8.46982 22.6814L10.3373 20.5368C11.0085 20.5936 11.7284 20.6217 12.5 20.6217C20.5769 20.6217 23 17.5366 23 10.8109ZM10.7834 18.9898C11.3189 19.0314 11.8904 19.052 12.5 19.052C19.3343 19.052 21.3846 16.4605 21.3846 10.8109C21.3846 5.16125 19.3343 2.56974 12.5 2.56974C5.66568 2.56974 3.61538 5.16125 3.61538 10.8109C3.61538 14.8042 4.63974 17.2697 7.65385 18.372V21.7268C7.65385 22.0193 8.02915 22.1529 8.22356 21.9296L10.7834 18.9898Z" fill="white"/>
<path d="M9.08351 9.52204L9.1244 9.49799C9.22802 9.43701 9.49782 9.25749 9.69379 9.0668C9.72427 9.03713 9.75319 8.98048 9.76055 8.88407C9.76402 8.83865 9.76154 8.79492 9.7565 8.76006C9.75435 8.74513 9.75217 8.73472 9.75073 8.72857C9.74337 8.71571 9.72416 8.6823 9.68645 8.62255C9.63908 8.54751 9.57639 8.45243 9.50483 8.34687C9.36174 8.1358 9.19002 7.89291 9.0483 7.70219C8.77895 7.33972 8.37738 6.91302 8.11693 6.66972C8.11069 6.66716 8.09029 6.6606 8.04693 6.66134C7.97439 6.66258 7.89795 6.68502 7.85405 6.70758M9.08351 9.52204L7.85405 6.70758M9.08351 9.52204L9.04788 9.55336M9.08351 9.52204L9.04788 9.55336M7.85405 6.70758C7.1891 7.04938 6.89005 7.40221 6.59846 7.77349C6.5303 7.86027 6.49933 7.97162 6.50001 8.10149C6.50071 8.23628 6.53615 8.35386 6.55772 8.40226L6.57269 8.43587L6.58258 8.4713C6.68873 8.85153 7.08765 9.69727 7.69254 10.661C8.29132 11.6151 9.05691 12.6285 9.86319 13.3576C11.1523 14.5235 12.5296 15.3154 13.6234 15.8154C14.1697 16.0651 14.6418 16.2404 14.9919 16.3523C15.1672 16.4083 15.3091 16.4475 15.4123 16.4722C15.5062 16.4946 15.5443 16.499 15.5442 16.4998C15.5442 16.5001 15.5408 16.5 15.5345 16.5C15.7622 16.5 16.0897 16.3337 16.4368 16.0139C16.7716 15.7054 17.0144 15.356 17.0899 15.1842C17.1084 15.142 17.1125 15.1122 17.1129 15.093C17.1133 15.0731 17.1098 15.0549 17.1034 15.0372C17.0967 15.0187 17.0867 15.0011 17.0756 14.9864C17.0665 14.9743 17.0599 14.9683 17.0595 14.9678C17.0594 14.9677 17.0598 14.9681 17.0608 14.9689C16.8376 14.7976 16.3456 14.4231 16.1297 14.2687C15.8464 14.0662 15.279 13.681 14.8117 13.5132C14.714 13.4781 14.6351 13.4862 14.5715 13.5074C14.5376 13.5186 14.5078 13.534 14.484 13.5494C14.4705 13.5581 14.4611 13.5656 14.4555 13.5703C14.3604 13.6898 14.1552 13.9371 13.9305 14.175C13.5179 14.6118 13.0144 14.5169 12.8323 14.4825C12.827 14.4815 12.822 14.4806 12.8173 14.4797L12.9087 13.9881L12.8173 14.4797L12.7861 14.474L12.7698 14.4713M7.85405 6.70758L12.7698 14.4713M9.04788 9.55336C8.81901 9.75452 8.50472 10.2741 8.78356 10.9073C8.99801 11.3943 9.48255 12.4063 10.3415 13.1729C11.1761 13.9178 12.0729 14.324 12.6759 14.4592L12.7299 14.4713M9.04788 9.55336L12.7299 14.4713M12.7299 14.4713H12.7698M12.7299 14.4713H12.7698" fill="black" stroke="black" stroke-linecap="round"/>
</svg>
