<svg width="92" height="66" viewBox="0 0 92 66" fill="none" xmlns="http://www.w3.org/2000/svg">
<path d="M24.8258 61.9405C24.0226 62.1417 23.3589 62.0111 22.8348 61.5487C21.2636 62.2393 19.7316 62.8644 18.2388 63.424C16.7461 63.9836 15.406 64.4122 14.2187 64.7097C13.4505 64.9022 12.8699 64.8807 12.4768 64.6452C12.0838 64.4096 11.8041 63.9601 11.6379 63.2966C11.4541 62.5633 12.1172 61.5807 13.627 60.3487C15.1281 59.0819 17.7249 57.7446 21.4175 56.3369C21.2507 54.6343 21.1229 52.4952 21.0342 49.9196C20.9368 47.309 20.8523 44.5281 20.7808 41.577C20.7356 38.5822 20.6947 35.679 20.6582 32.8676C19.7685 34.5008 18.809 36.0773 17.7795 37.5971C16.7413 39.082 15.7204 40.3399 14.7169 41.3707C13.7046 42.3666 12.7619 42.974 11.8889 43.1927C11.0508 43.4027 10.5005 42.9839 10.238 41.9363C10.133 41.5173 10.3684 40.8274 10.9441 39.8666C11.5548 38.8971 12.3268 37.683 13.2603 36.2244C14.2287 34.757 15.2362 33.0757 16.283 31.1804C17.3297 29.2852 18.2934 27.2066 19.174 24.9447C20.0546 22.6829 20.6732 20.264 21.0298 17.688C21.1603 16.876 21.3783 16.3389 21.6838 16.0768C21.9892 15.8147 22.2642 15.653 22.5086 15.5917C23.0324 15.4605 23.5651 15.5868 24.1067 15.9707C24.6395 16.3196 25.0852 17.21 25.444 18.6417C25.5052 18.8862 25.5581 19.8378 25.6027 21.4968C25.6385 23.1208 25.6659 25.2293 25.6847 27.8225C25.7385 30.407 25.7663 33.2577 25.7679 36.3748C25.8046 39.4831 25.8499 42.6263 25.904 45.8045C25.9582 48.9826 26.0209 51.9731 26.0923 54.7758C27.7771 54.2423 29.5624 53.7392 31.4481 53.2667C32.8449 52.9167 33.8402 52.7416 34.4339 52.7412C35.0538 52.6972 35.4424 52.7669 35.5996 52.9501C35.7831 53.0897 35.9054 53.2818 35.9667 53.5262C36.0542 53.8754 35.6485 54.4039 34.7495 55.1116C33.8418 55.7844 32.6242 56.5534 31.0967 57.4186C29.5692 58.2839 27.8977 59.1666 26.082 60.0669C25.908 61.1497 25.4892 61.7742 24.8258 61.9405ZM47.5145 54.6965C43.9177 55.5977 41.163 55.5643 39.2503 54.5962C37.3638 53.5844 36.123 51.8912 35.528 49.5166C35.1343 47.9452 35.2381 46.212 35.8395 44.3169C36.4322 42.387 37.3566 40.3739 38.6128 38.2777C39.8951 36.1379 41.3346 33.9587 42.9312 31.74C40.5562 31.4445 38.7965 30.939 37.6523 30.2237C36.5082 29.5083 35.7742 28.5046 35.4504 27.2126C35.2317 26.3396 35.4057 25.1826 35.9724 23.7416C36.5392 22.3006 37.3591 20.7591 38.4321 19.117C39.5052 17.475 40.7223 15.8896 42.0836 14.3609C43.4798 12.8234 44.8935 11.5042 46.3248 10.4033C47.7562 9.30238 49.0829 8.5988 50.3052 8.29254C51.2131 8.06503 51.9204 8.14759 52.427 8.54023C52.9685 8.92411 53.3443 9.53509 53.5543 10.3732C53.6943 10.9319 53.6029 11.4558 53.2801 11.945C52.9923 12.4253 52.1849 12.8318 50.8579 13.1643C50.6134 13.2255 50.3515 13.2912 50.0722 13.3612C49.819 13.3875 49.5309 13.4226 49.2078 13.4664C47.6108 14.9429 46.1535 16.4585 44.8359 18.0134C43.5183 19.5683 42.454 21.0969 41.6428 22.5991C40.8665 24.0926 40.4307 25.4636 40.3353 26.7122C41.1823 26.834 42.0861 26.9601 43.0466 27.0906C44.0333 27.1773 45.0767 27.2685 46.1769 27.3639C46.7876 26.5428 47.4028 25.7392 48.0222 24.9531C48.633 24.132 49.2263 23.3153 49.8021 22.503C51.8524 19.7253 53.737 17.1748 55.4558 14.8513C57.2095 12.5191 58.6666 10.6323 59.8271 9.19105C61.0225 7.74101 61.7774 6.97661 62.0916 6.89786C62.3361 6.83661 62.5893 6.88449 62.8513 7.04151C63.1046 7.16362 63.2925 7.46911 63.415 7.95799C63.4763 8.20244 63.2278 8.83996 62.6695 9.87055C62.1025 10.8662 61.313 12.1589 60.3011 13.7485C59.2804 15.3032 58.107 17.0632 56.7809 19.0285C55.4897 20.985 54.1287 23.0332 52.698 25.1732C52.4275 25.575 52.144 25.9986 51.8474 26.444C51.542 26.8546 51.2541 27.2607 50.9836 27.6625C54.0048 28.0189 56.4806 28.8645 58.411 30.1993C60.3762 31.5254 61.6914 33.5154 62.3564 36.1693C62.9689 38.6138 62.8262 41.0804 61.9282 43.5693C61.0651 46.0495 59.4336 48.2769 57.0336 50.2514C54.6335 52.226 51.4605 53.7077 47.5145 54.6965ZM47.9606 32.0385C46.46 34.196 45.0816 36.2486 43.8253 38.1963C42.5952 40.1004 41.6576 41.8385 41.0123 43.4104C40.3671 44.9824 40.1757 46.2922 40.4382 47.3398C40.7707 48.6668 41.4566 49.6269 42.496 50.22C43.5615 50.7695 45.2292 50.7599 47.499 50.1911C49.1053 49.7886 50.5936 49.1373 51.964 48.2373C53.3605 47.2935 54.5517 46.1971 55.5376 44.948C56.5148 43.664 57.2039 42.3408 57.6048 40.9785C58.0319 39.5725 58.0835 38.2235 57.7598 36.9315C57.3485 35.2902 56.2695 34.0946 54.5229 33.3447C52.7675 32.5598 50.58 32.1244 47.9606 32.0385ZM76.4856 36.7484C75.9967 36.8709 75.3811 36.7839 74.6388 36.4875C73.9314 36.1823 73.4202 35.4011 73.1052 34.144C72.8515 33.1313 72.6369 31.9789 72.4616 30.6867C72.3124 29.3509 72.2069 27.9671 72.145 26.5352C70.0848 27.1999 68.1293 27.7641 66.2785 28.2279C64.9166 28.5691 63.9431 28.6089 63.3579 28.3473C62.7641 28.0508 62.4102 27.6755 62.2965 27.2216C62.1915 26.8025 62.3222 26.3615 62.6887 25.8986C63.0464 25.4007 63.7098 25.0118 64.6788 24.7319C65.674 24.4083 66.8132 23.9929 68.0964 23.4858C69.3709 22.9438 70.6759 22.3755 72.0115 21.7811C72.0279 19.9213 72.1143 18.1925 72.2706 16.5945C72.4181 14.9617 72.6226 13.6301 72.884 12.5996C73.1803 11.5605 73.5205 10.9927 73.9046 10.8965C74.5681 10.7302 75.0833 10.7867 75.4501 11.0659C75.817 11.3451 76.1142 11.9387 76.3417 12.8466C76.4642 13.3355 76.5738 14.2173 76.6705 15.492C76.7934 16.7231 76.9077 18.1418 77.0134 19.7483C77.6594 19.5122 78.2748 19.3023 78.8597 19.1187C79.4358 18.9001 79.9684 18.7295 80.4572 18.607C82.1683 18.1783 83.3601 18.1209 84.0326 18.4348C84.7313 18.7051 85.1593 19.1545 85.3168 19.7831C85.4043 20.1323 85.1077 20.5778 84.427 21.1195C83.7375 21.6263 82.7642 22.1856 81.5073 22.7975C80.2852 23.4006 78.8973 24.0082 77.3434 24.6202C77.4493 26.5236 77.5419 28.3745 77.6215 30.1731C77.7272 31.9281 77.811 33.3731 77.8727 34.5081C77.8818 35.1367 77.7511 35.652 77.4806 36.0537C77.2014 36.4206 76.8698 36.6522 76.4856 36.7484Z" fill="#FF62D5"/>
</svg>
