<svg width="113" height="18" viewBox="0 0 113 18" fill="none" xmlns="http://www.w3.org/2000/svg">
<path fill-rule="evenodd" clip-rule="evenodd" d="M90.7363 17.47C95.5612 17.47 99.4726 13.5592 99.4726 8.735C99.4726 3.91079 95.5612 0 90.7363 0C85.9114 0 82 3.91079 82 8.735C82 13.5592 85.9114 17.47 90.7363 17.47ZM90.4216 13.0809C92.834 13.0809 94.7897 11.1256 94.7897 8.71345C94.7897 6.30134 92.834 4.34595 90.4216 4.34595C88.0091 4.34595 86.0534 6.30134 86.0534 8.71345C86.0534 11.1256 88.0091 13.0809 90.4216 13.0809Z" fill="#FF62D5"/>
<path d="M102.664 16.5969V1.35034H107.817C109.013 1.35034 109.991 1.56624 110.75 1.99802C111.515 2.42485 112.08 3.00304 112.448 3.73261C112.815 4.46219 112.999 5.27613 112.999 6.17444C112.999 7.07276 112.815 7.88918 112.448 8.62372C112.085 9.35825 111.524 9.94389 110.765 10.3806C110.006 10.8124 109.033 11.0283 107.846 11.0283H104.153V9.39051H107.787C108.606 9.39051 109.263 9.24906 109.76 8.96617C110.256 8.68327 110.616 8.30112 110.839 7.8197C111.068 7.33332 111.182 6.7849 111.182 6.17444C111.182 5.56399 111.068 5.01805 110.839 4.53663C110.616 4.05521 110.254 3.67802 109.752 3.40505C109.251 3.12712 108.586 2.98815 107.757 2.98815H104.511V16.5969H102.664Z" fill="white"/>
<path d="M65.9609 16.5969V1.35034H67.8075V8.13982H75.9382V1.35034H77.7847V16.5969H75.9382V9.77763H67.8075V16.5969H65.9609Z" fill="white"/>
<path d="M60.053 5.16144C59.9637 4.40706 59.6013 3.82141 58.966 3.40452C58.3306 2.98762 57.5513 2.77917 56.628 2.77917C55.9529 2.77917 55.3622 2.88836 54.8559 3.10673C54.3546 3.32511 53.9624 3.62537 53.6795 4.00753C53.4015 4.38969 53.2625 4.82395 53.2625 5.31033C53.2625 5.71731 53.3593 6.0672 53.5529 6.36002C53.7515 6.64788 54.0046 6.88859 54.3124 7.08215C54.6201 7.27075 54.9428 7.42708 55.2803 7.55116C55.6179 7.67027 55.9281 7.76705 56.211 7.8415L57.7597 8.2584C58.1568 8.36262 58.5986 8.50655 59.0851 8.69018C59.5765 8.87382 60.0456 9.12445 60.4923 9.44209C60.944 9.75476 61.3163 10.1568 61.6092 10.6481C61.902 11.1395 62.0485 11.7425 62.0485 12.4572C62.0485 13.281 61.8326 14.0255 61.4007 14.6905C60.9738 15.3556 60.3484 15.8842 59.5244 16.2762C58.7054 16.6683 57.7101 16.8644 56.5386 16.8644C55.4466 16.8644 54.501 16.6882 53.7018 16.3358C52.9076 15.9834 52.2822 15.4921 51.8255 14.8618C51.3738 14.2314 51.1182 13.4994 51.0586 12.6656H52.9647C53.0143 13.2413 53.2079 13.7178 53.5455 14.095C53.888 14.4672 54.3198 14.7451 54.841 14.9288C55.3672 15.1074 55.9331 15.1968 56.5386 15.1968C57.2435 15.1968 57.8764 15.0826 58.4373 14.8543C58.9982 14.6211 59.4425 14.2985 59.7701 13.8865C60.0977 13.4696 60.2615 12.9832 60.2615 12.4274C60.2615 11.9211 60.12 11.5092 59.8371 11.1916C59.5542 10.8739 59.1819 10.6159 58.7202 10.4173C58.2586 10.2188 57.7597 10.0451 57.2237 9.89621L55.3473 9.3602C54.156 9.01775 53.2129 8.52888 52.518 7.89361C51.823 7.25834 51.4756 6.42703 51.4756 5.39967C51.4756 4.54602 51.7064 3.80156 52.168 3.16629C52.6346 2.52605 53.26 2.02975 54.0443 1.67737C54.8336 1.32003 55.7147 1.14136 56.6876 1.14136C57.6704 1.14136 58.544 1.31755 59.3085 1.66992C60.0729 2.01734 60.6785 2.49379 61.1252 3.09929C61.5769 3.70478 61.8152 4.39217 61.84 5.16144H60.053Z" fill="white"/>
<path d="M47.5112 8.15454V9.79235H40.8398V8.15454H47.5112Z" fill="white"/>
<path d="M29.1976 1.35034L33.1289 7.69314H33.2481L37.1794 1.35034H39.3536L34.5585 8.97361L39.3536 16.5969H37.1794L33.2481 10.3732H33.1289L29.1976 16.5969H27.0234L31.9376 8.97361L27.0234 1.35034H29.1976Z" fill="white"/>
<path d="M14.8984 16.5969V1.35034H24.1014V2.98815H16.745V8.13982H23.6248V9.77763H16.745V14.9591H24.2205V16.5969H14.8984Z" fill="white"/>
<path d="M8.99443 5.16169C8.90508 4.4073 8.54273 3.82166 7.90736 3.40476C7.27199 2.98786 6.49267 2.77941 5.5694 2.77941C4.89432 2.77941 4.30363 2.8886 3.79732 3.10698C3.29597 3.32535 2.90383 3.62562 2.62089 4.00777C2.34292 4.38993 2.20393 4.8242 2.20393 5.31058C2.20393 5.71755 2.30073 6.06745 2.49432 6.36027C2.69287 6.64813 2.94602 6.88883 3.25378 7.08239C3.56154 7.27099 3.88419 7.42733 4.22172 7.5514C4.55926 7.67052 4.8695 7.7673 5.15244 7.84174L6.70115 8.25864C7.09826 8.36287 7.54004 8.50679 8.02649 8.69043C8.51791 8.87406 8.98699 9.1247 9.43373 9.44233C9.88544 9.75501 10.2577 10.157 10.5506 10.6484C10.8435 11.1397 10.9899 11.7427 10.9899 12.4574C10.9899 13.2813 10.774 14.0257 10.3421 14.6908C9.91522 15.3558 9.28978 15.8844 8.46579 16.2765C7.64676 16.6686 6.65151 16.8646 5.48005 16.8646C4.38801 16.8646 3.44241 16.6884 2.64323 16.336C1.84902 15.9837 1.22358 15.4923 0.76691 14.862C0.315202 14.2317 0.0595658 13.4996 0 12.6658H1.90611C1.95574 13.2416 2.14933 13.718 2.48687 14.0952C2.82937 14.4674 3.26123 14.7454 3.78243 14.929C4.30859 15.1077 4.87447 15.197 5.48005 15.197C6.18491 15.197 6.8178 15.0829 7.37871 14.8546C7.93962 14.6213 8.38388 14.2987 8.7115 13.8868C9.03911 13.4699 9.20291 12.9835 9.20291 12.4276C9.20291 11.9214 9.06145 11.5095 8.77851 11.1918C8.49557 10.8742 8.12328 10.6161 7.66165 10.4176C7.20001 10.2191 6.70115 10.0453 6.16506 9.89645L4.28874 9.36044C3.09742 9.01799 2.1543 8.52913 1.45936 7.89386C0.764428 7.25858 0.416961 6.42727 0.416961 5.39991C0.416961 4.54627 0.647778 3.80181 1.10941 3.16653C1.57601 2.5263 2.20145 2.02999 2.98573 1.67761C3.77498 1.32027 4.65606 1.1416 5.62897 1.1416C6.6118 1.1416 7.48543 1.31779 8.24986 1.67017C9.01429 2.01758 9.61987 2.49404 10.0666 3.09953C10.5183 3.70503 10.7566 4.39241 10.7814 5.16169H8.99443Z" fill="white"/>
</svg>
