<?xml version="1.0" encoding="UTF-8"?>
<svg version="1.1" xmlns="http://www.w3.org/2000/svg" width="819" height="819">
<path d="M0 0 C0.90862289 -0.00960754 1.81724579 -0.01921509 2.75340271 -0.02911377 C3.74493851 -0.03336365 4.7364743 -0.03761353 5.75805664 -0.04199219 C6.77613907 -0.04769226 7.7942215 -0.05339233 8.84315491 -0.05926514 C11.00789343 -0.06873752 13.17264651 -0.07525795 15.33740234 -0.07910156 C18.62306734 -0.08873482 21.90808747 -0.11970672 25.19360352 -0.15136719 C27.29841752 -0.15790434 29.40323599 -0.16315201 31.50805664 -0.16699219 C32.48137436 -0.17933899 33.45469208 -0.19168579 34.45750427 -0.20440674 C44.34229985 -0.17274666 54.50636239 1.99009855 61.73071289 9.16113281 C68.27808751 18.36611336 70.39773267 26.90874928 68.73071289 38.16113281 C67.74328991 41.42722422 66.71864139 43.32123495 64.73071289 46.16113281 C63.24571289 46.65613281 63.24571289 46.65613281 61.73071289 47.16113281 C61.44196289 47.75925781 61.15321289 48.35738281 60.85571289 48.97363281 C59.2325576 52.12976809 57.78431579 53.26789901 54.73071289 55.16113281 C50.77324947 56.3736542 46.77966725 57.30872137 42.73071289 58.16113281 C43.09422852 58.64582031 43.45774414 59.13050781 43.83227539 59.62988281 C44.88821331 61.03780003 45.94280958 62.4467241 46.99633789 63.85644531 C48.14260321 65.37963572 49.29872944 66.89546051 50.46508789 68.40332031 C51.00649414 69.10714844 51.54790039 69.81097656 52.10571289 70.53613281 C52.60844727 71.18324219 53.11118164 71.83035156 53.62915039 72.49707031 C54.73071289 74.16113281 54.73071289 74.16113281 54.73071289 76.16113281 C55.39071289 76.16113281 56.05071289 76.16113281 56.73071289 76.16113281 C57.9018959 77.84563029 58.99313951 79.5860928 60.04321289 81.34863281 C62.62149422 85.52555622 64.99948822 88.97861765 68.73071289 92.16113281 C69.06071289 92.16113281 69.39071289 92.16113281 69.73071289 92.16113281 C69.8466438 81.44301768 69.93544719 70.7250521 69.98977375 60.0064373 C70.01585003 55.0291311 70.0512122 50.05225436 70.10791016 45.07519531 C70.16230006 40.27058832 70.19214824 35.46639398 70.20509911 30.66150284 C70.21432646 28.82986074 70.23234571 26.99824083 70.25936317 25.16677475 C70.29574717 22.59783155 70.30065447 20.03058584 70.29833984 17.46142578 C70.31631622 16.70688614 70.3342926 15.9523465 70.35281372 15.17494202 C70.29597566 9.33161411 68.50783507 7.25122423 64.73071289 3.16113281 C64.73071289 2.17113281 64.73071289 1.18113281 64.73071289 0.16113281 C69.47952528 -1.00802768 74.11749454 -1.74202844 78.73071289 0.16113281 C83.88250516 4.57044974 87.62764456 10.42406612 91.32714844 16.0546875 C92.72249903 18.2067572 92.72249903 18.2067572 94.40966797 20.30664062 C95.73071289 22.16113281 95.73071289 22.16113281 95.73071289 24.16113281 C96.39071289 24.16113281 97.05071289 24.16113281 97.73071289 24.16113281 C97.83383789 24.80050781 97.93696289 25.43988281 98.04321289 26.09863281 C98.27008789 26.77925781 98.49696289 27.45988281 98.73071289 28.16113281 C100.21571289 28.65613281 100.21571289 28.65613281 101.73071289 29.16113281 C101.73071289 30.15113281 101.73071289 31.14113281 101.73071289 32.16113281 C103.21571289 32.65613281 103.21571289 32.65613281 104.73071289 33.16113281 C106.67982011 35.37378945 108.49780399 37.58016829 110.29321289 39.91113281 C110.78756836 40.53246094 111.28192383 41.15378906 111.79125977 41.79394531 C114.38135475 45.11655701 116.42067644 48.09924466 117.73071289 52.16113281 C118.39071289 52.16113281 119.05071289 52.16113281 119.73071289 52.16113281 C121.12871449 53.90280981 122.45091892 55.70583923 123.73071289 57.53613281 C126.51136057 61.53324495 126.51136057 61.53324495 129.73071289 65.16113281 C129.73071289 66.15113281 129.73071289 67.14113281 129.73071289 68.16113281 C130.30821289 68.36738281 130.88571289 68.57363281 131.48071289 68.78613281 C133.73071289 70.16113281 133.73071289 70.16113281 137.73071289 76.16113281 C137.73071289 51.08113281 137.73071289 26.00113281 137.73071289 0.16113281 C140.04071289 0.16113281 142.35071289 0.16113281 144.73071289 0.16113281 C146.45058495 1.88100487 145.85046077 4.0699031 145.85513306 6.36245728 C145.85153778 7.10692108 145.8479425 7.85138489 145.84423828 8.6184082 C145.84438431 9.39883987 145.84453033 10.17927155 145.84468079 10.98335266 C145.84398147 13.57519261 145.83618825 16.1669616 145.82836914 18.75878906 C145.82650503 20.55097921 145.82508109 22.34316987 145.82408142 24.13536072 C145.82025573 28.86184079 145.81042501 33.58829033 145.79937744 38.3147583 C145.78916442 43.13398831 145.78458404 47.95322323 145.77954102 52.77246094 C145.76880278 62.23536501 145.75172575 71.69824637 145.73071289 81.16113281 C147.01926223 78.26777518 148.30694776 75.37403389 149.59448242 72.48022461 C149.95778152 71.66448723 150.32108063 70.84874985 150.69538879 70.00829315 C153.06162993 64.68858514 155.3785055 59.35317525 157.60571289 53.97363281 C160.66372399 46.66187473 163.77124224 39.37255696 166.91821289 32.09863281 C167.32217285 31.15930908 167.72613281 30.21998535 168.14233398 29.25219727 C170.48256805 23.85913026 172.99503563 18.59620255 175.65722656 13.35522461 C177.2827856 10.03275494 178.45689772 6.59207992 179.64086914 3.09472656 C180.73071289 1.16113281 180.73071289 1.16113281 182.85180664 0.38378906 C183.4718457 0.3103125 184.09188477 0.23683594 184.73071289 0.16113281 C188.9634143 7.95230002 192.02258776 16.03259664 195.05932617 24.33544922 C197.77612065 31.72315435 200.92111025 38.86110385 204.26586914 45.98535156 C205.52873229 48.72323887 206.71853293 51.48268008 207.89794922 54.25708008 C209.89702473 58.82781883 212.09747125 63.30851642 214.24951172 67.80859375 C216.02672861 71.53474972 217.79365653 75.25855335 219.44165039 79.04394531 C223.67981824 89.1409382 223.67981824 89.1409382 231.73071289 96.16113281 C231.73071289 97.15113281 231.73071289 98.14113281 231.73071289 99.16113281 C224.80071289 99.16113281 217.87071289 99.16113281 210.73071289 99.16113281 C210.54508789 97.16050781 210.35946289 95.15988281 210.16821289 93.09863281 C209.14721437 85.67937692 206.57573715 79.77204674 203.19165039 73.14550781 C201.73071289 70.16113281 201.73071289 70.16113281 201.73071289 68.16113281 C200.56540039 68.17273438 199.40008789 68.18433594 198.19946289 68.19628906 C184.68583788 68.28559844 171.22716649 67.81813263 157.73071289 67.16113281 C157.58142334 67.94037109 157.43213379 68.71960938 157.27832031 69.52246094 C155.14534897 79.80028272 149.4478424 89.86164893 144.73071289 99.16113281 C140.73071289 99.16113281 140.73071289 99.16113281 138.94946289 97.58691406 C138.38227539 96.88953125 137.81508789 96.19214844 137.23071289 95.47363281 C136.63129883 94.74402344 136.03188477 94.01441406 135.41430664 93.26269531 C134.8587207 92.56917969 134.30313477 91.87566406 133.73071289 91.16113281 C132.52415039 89.76894531 132.52415039 89.76894531 131.29321289 88.34863281 C129.73071289 86.16113281 129.73071289 86.16113281 129.73071289 83.16113281 C128.74071289 82.83113281 127.75071289 82.50113281 126.73071289 82.16113281 C124.97249124 79.89973588 123.3358727 77.65138301 121.73071289 75.28613281 C120.85835615 74.01608402 119.98343251 72.7477938 119.10571289 71.48144531 C118.72157227 70.91699707 118.33743164 70.35254883 117.94165039 69.77099609 C116.74397304 68.0892873 116.74397304 68.0892873 115.08227539 66.57861328 C113.73071289 65.16113281 113.73071289 65.16113281 113.73071289 63.16113281 C113.07071289 63.16113281 112.41071289 63.16113281 111.73071289 63.16113281 C110.41594312 61.52359298 109.17860882 59.82351008 107.98071289 58.09863281 C105.52498164 54.62117397 103.06094222 51.27927149 100.23071289 48.09863281 C97.73071289 45.16113281 97.73071289 45.16113281 97.73071289 43.16113281 C97.07071289 43.16113281 96.41071289 43.16113281 95.73071289 43.16113281 C94.31155638 41.44194322 92.97132723 39.65736471 91.66821289 37.84863281 C88.59057459 33.59114041 85.39196363 29.49116229 82.05712891 25.42993164 C81.24687759 24.44237381 80.43662628 23.45481598 79.6018219 22.43733215 C78.98435593 21.68618637 78.36688995 20.93504059 77.73071289 20.16113281 C77.7329335 21.13610214 77.73515411 22.11107147 77.73744202 23.11558533 C77.75767386 32.28342999 77.77268523 41.45127016 77.78252506 50.61913204 C77.78775378 55.33293014 77.79485123 60.04671028 77.80615234 64.76049805 C77.81698162 69.30568685 77.82298981 73.85085833 77.82559013 78.39605904 C77.82744431 80.13408239 77.83106478 81.87210475 77.83644295 83.61012077 C77.84365392 86.03591876 77.84470381 88.46164427 77.84423828 90.88745117 C77.84783356 91.6132135 77.85142883 92.33897583 77.85513306 93.08673096 C77.84476505 98.04708065 77.84476505 98.04708065 76.73071289 99.16113281 C74.80403782 99.24861489 72.87419428 99.26810615 70.94555664 99.25878906 C69.19082031 99.25395508 69.19082031 99.25395508 67.40063477 99.24902344 C66.16893555 99.24064453 64.93723633 99.23226562 63.66821289 99.22363281 C61.81486328 99.21686523 61.81486328 99.21686523 59.92407227 99.20996094 C56.85959876 99.19812899 53.79514996 99.18019289 50.73071289 99.16113281 C50.07071289 93.88113281 49.41071289 88.60113281 48.73071289 83.16113281 C48.07071289 83.16113281 47.41071289 83.16113281 46.73071289 83.16113281 C45.57895089 81.51957512 44.50936828 79.82000884 43.48071289 78.09863281 C41.28273084 74.52288004 39.08786555 71.2318301 36.29321289 68.09863281 C33.73071289 65.16113281 33.73071289 65.16113281 33.73071289 63.16113281 C32.74071289 62.83113281 31.75071289 62.50113281 30.73071289 62.16113281 C30.73071289 61.17113281 30.73071289 60.18113281 30.73071289 59.16113281 C23.80071289 58.83113281 16.87071289 58.50113281 9.73071289 58.16113281 C9.85106195 62.87523103 9.97391371 67.58913077 10.10302734 72.30297852 C10.14614585 73.90417706 10.18783553 75.50541478 10.22802734 77.10668945 C10.2862938 79.41792572 10.34982074 81.72896894 10.41430664 84.04003906 C10.43101913 84.74761856 10.44773163 85.45519806 10.46495056 86.18421936 C10.59536575 90.63167027 11.09501647 94.71125788 11.73071289 99.16113281 C6.12071289 99.16113281 0.51071289 99.16113281 -5.26928711 99.16113281 C-4.26928711 94.16113281 -4.26928711 94.16113281 -3.26928711 92.16113281 C-3.16567162 89.43619791 -3.12247962 86.73662913 -3.12402344 84.01123047 C-3.12066483 83.16880295 -3.11730621 82.32637543 -3.11384583 81.4584198 C-3.1043203 78.66399678 -3.10239186 75.86963358 -3.10131836 73.07519531 C-3.0981067 71.13707453 -3.0947427 69.198954 -3.0912323 67.26083374 C-3.08523689 63.19374021 -3.0833928 59.12666795 -3.08398438 55.05957031 C-3.08408598 49.84506013 -3.07043763 44.63068617 -3.05321217 39.41620827 C-3.04209926 35.41166557 -3.04006496 31.40715587 -3.0405941 27.40259933 C-3.03941276 25.48005072 -3.03498241 23.55750128 -3.02726173 21.6349678 C-3.01747697 18.94648933 -3.020334 16.25830735 -3.02636719 13.56982422 C-3.02074768 12.77383316 -3.01512817 11.9778421 -3.00933838 11.1577301 C-3.03108325 7.34924469 -3.11407791 4.3878858 -5.26928711 1.16113281 C-3.70577031 -0.40238398 -2.17335121 0.01849022 0 0 Z M9.73071289 4.16113281 C9.73071289 20.33113281 9.73071289 36.50113281 9.73071289 53.16113281 C30.27486926 54.85680279 30.27486926 54.85680279 49.25415039 47.98144531 C55.71594118 40.01532228 57.61407126 33.44137583 56.73071289 23.16113281 C55.00301258 15.99722899 50.77665473 11.22553692 44.73071289 7.16113281 C40.77072051 5.19777525 37.24853427 4.79119986 32.85571289 4.53613281 C31.09614258 4.42398437 31.09614258 4.42398437 29.30102539 4.30957031 C22.78083829 4.09780355 16.25433803 4.16113281 9.73071289 4.16113281 Z M179.73071289 17.16113281 C179.27631836 18.17820312 179.27631836 18.17820312 178.81274414 19.21582031 C176.66888977 23.97847524 174.48500449 28.69852796 172.10571289 33.34863281 C170.34706454 36.82769804 168.84946282 40.28002752 167.55493164 43.95410156 C166.1130998 47.8149309 164.39198256 51.56364386 162.71899414 55.32910156 C161.73278729 58.15518838 161.53020816 60.1969143 161.73071289 63.16113281 C173.9923228 64.81173415 186.45970831 64.61701471 198.73071289 63.16113281 C195.98814875 53.3959423 192.28283245 44.30768741 188.02758789 35.11425781 C186.11136214 30.75080399 184.4777903 26.28912012 182.84399414 21.81347656 C181.88726792 19.06546537 181.88726792 19.06546537 179.73071289 17.16113281 Z " fill="#694D6E" transform="translate(509.269287109375,359.8388671875)"/>
<path d="M0 0 C30.03 0 60.06 0 91 0 C90 6 90 6 89 9 C88.88635142 10.94492769 88.83079617 12.8934512 88.80712891 14.84155273 C88.78303452 16.64504433 88.78303452 16.64504433 88.75845337 18.48497009 C88.71384061 24.00877632 88.67246421 29.5324525 88.64990234 35.05639648 C88.63663072 37.96134405 88.60890584 40.86557783 88.56787109 43.77026367 C88.51809499 47.29461204 88.49372603 50.8183195 88.48667526 54.34300423 C88.47683228 56.31699011 88.44269126 58.29080787 88.40786743 60.26451111 C88.42829359 69.08489568 89.6924163 77.64377384 95.39932251 84.73997498 C96.55617436 85.87271431 97.7731153 86.94351595 99 88 C99.33 88.99 99.66 89.98 100 91 C102.92914165 92.17082878 102.92914165 92.17082878 106 93 C106.66 93.33 107.32 93.66 108 94 C121.26216665 95.14688215 121.26216665 95.14688215 133.30859375 90.48828125 C138.58474214 85.84575807 142.61260235 80.5578003 143.39199829 73.39994812 C143.41512031 72.05285717 143.42239484 70.70543079 143.41650391 69.3581543 C143.42938194 68.24734245 143.42938194 68.24734245 143.44252014 67.11408997 C143.46746954 64.68403457 143.47194788 62.25439021 143.4765625 59.82421875 C143.49087862 58.13123841 143.50663673 56.4382697 143.52377319 54.74531555 C143.56553669 50.30209655 143.59059751 45.85894975 143.61126709 41.41558838 C143.64715687 34.28596389 143.7079275 27.15651692 143.76975632 20.02707863 C143.78889415 17.53365249 143.8005868 15.04027409 143.81118774 12.54679871 C143.8213932 11.02948907 143.83175055 9.51218044 143.84228516 7.99487305 C143.84332748 7.29723846 143.84436981 6.59960388 143.84544373 5.88082886 C143.88656849 1.11343151 143.88656849 1.11343151 145 0 C147.33297433 -0.04092937 149.66705225 -0.04241723 152 0 C151.93066757 0.63676163 151.86133514 1.27352325 151.78990173 1.92958069 C151.02851841 9.48183795 150.82011472 16.9717672 150.75390625 24.55859375 C150.72097881 27.15690455 150.68776699 29.75521176 150.65429688 32.35351562 C150.60598374 36.39945389 150.56198499 40.44541447 150.52319336 44.49145508 C150.48489305 48.43064099 150.43176184 52.369576 150.37890625 56.30859375 C150.3704921 57.5027037 150.36207794 58.69681366 150.35340881 59.92710876 C150.1704499 72.512966 149.50316521 83.1008894 140.51953125 92.55859375 C131.58906513 100.62713821 120.33163234 100.49494486 109 100 C100.09083427 98.95712107 91.51408994 94.44837167 85.46484375 87.88671875 C73.02854895 71.86877105 76.74295315 46.41692038 76.52319336 27.33740234 C76.48366919 24.05287309 76.43217617 20.76870599 76.37890625 17.484375 C76.3704921 16.47509949 76.36207794 15.46582397 76.35340881 14.42596436 C76.33676682 13.49358948 76.32012482 12.5612146 76.30297852 11.60058594 C76.28751732 10.37272369 76.28751732 10.37272369 76.27174377 9.12005615 C76.12120267 6.70035541 76.12120267 6.70035541 74 4 C73.67 5.65 73.34 7.3 73 9 C69.8566851 8.5400027 66.91346025 7.97317268 63.875 7.03125 C59.49650386 5.75706299 55.08797433 5.32034696 50.5625 4.875 C49.03503105 4.71934217 47.50760887 4.56322493 45.98022461 4.40673828 C45.22897812 4.32996857 44.47773163 4.25319885 43.70372009 4.17410278 C43.14149246 4.11664886 42.57926483 4.05919495 42 4 C41.9183495 20.72798468 42.13263458 37.45120163 42.37231445 54.17700195 C42.42788067 58.07229642 42.47787925 61.96764281 42.52671719 65.86302662 C42.56574757 68.89748115 42.60879828 71.93186921 42.65294075 74.96625328 C42.67316501 76.40343905 42.69190804 77.84064653 42.70907402 79.27787209 C42.7333468 81.27881015 42.76389282 83.27966911 42.79467773 85.28051758 C42.81799416 86.97873405 42.81799416 86.97873405 42.84178162 88.71125793 C43.00762594 92.15851359 43.51192058 95.58344408 44 99 C39.05 99 34.1 99 29 99 C29.10748656 87.20409828 29.22011706 75.40825801 29.33933926 63.61246872 C29.39453498 58.13538369 29.44794971 52.65829328 29.49731445 47.18115234 C29.54500731 41.89674471 29.59735203 36.61240186 29.65294075 31.32807159 C29.67334197 29.31064718 29.69205873 27.29320502 29.70907402 25.27574921 C29.73316736 22.4529732 29.76321533 19.63031933 29.79467773 16.80761719 C29.8004332 15.97108109 29.80618866 15.13454498 29.81211853 14.2726593 C29.85762781 10.68732853 30.03563045 7.45129829 31 4 C30.31550781 4.15726562 29.63101562 4.31453125 28.92578125 4.4765625 C25.66299261 5.06029238 22.49790446 5.22170674 19.1875 5.375 C13.46557831 5.740484 9.23459142 6.7704518 4 9 C2.68 9 1.36 9 0 9 C0 6.03 0 3.06 0 0 Z " fill="#805E83" transform="translate(351,360)"/>
<path d="M0 0 C0.80759766 -0.01224609 1.61519531 -0.02449219 2.44726562 -0.03710938 C15.773045 -0.06932318 26.72885681 5.38601401 36.5625 14.1875 C39.98801327 17.62020972 42.63107583 20.32927621 43.5625 25.1875 C44.2225 25.1875 44.8825 25.1875 45.5625 25.1875 C51.95156443 37.94281077 53.33530303 54.27032355 49.7109375 68.11328125 C44.09658655 82.83663017 31.80196417 92.16085395 18.125 98.875 C5.69850426 103.45318264 -9.97954882 102.41817659 -22 97.3125 C-28.27736346 94.38450431 -33.80647784 91.52019218 -38.4375 86.1875 C-38.4375 85.5275 -38.4375 84.8675 -38.4375 84.1875 C-39.4275 83.8575 -40.4175 83.5275 -41.4375 83.1875 C-51.01709938 72.68084261 -53.10686947 59.76401945 -52.7890625 45.8671875 C-51.77617951 35.26567886 -47.86852768 24.16490222 -39.4375 17.1875 C-38.7775 17.1875 -38.1175 17.1875 -37.4375 17.1875 C-37.375625 16.61 -37.31375 16.0325 -37.25 15.4375 C-36.09045742 12.22645902 -34.19786488 11.15042614 -31.4375 9.1875 C-30.53 8.5275 -29.6225 7.8675 -28.6875 7.1875 C-19.32755626 1.42753462 -10.87974457 0.00864158 0 0 Z M-26.4375 15.1875 C-26.99050781 15.81269531 -27.54351562 16.43789063 -28.11328125 17.08203125 C-33.02843977 22.92338667 -35.90866075 29.01586995 -38.4375 36.1875 C-38.685 36.87585938 -38.9325 37.56421875 -39.1875 38.2734375 C-43.12509266 51.23468 -39.71350652 64.64586562 -33.828125 76.40234375 C-27.95683521 86.21924801 -20.26950114 92.57683295 -9.4375 96.1875 C2.75908408 97.40885903 12.39790121 96.85770762 22.203125 89.09765625 C31.21274797 81.39205766 37.40747338 73.14876842 38.96484375 61.06591797 C39.13295923 57.80417744 39.16868347 54.57819904 39.125 51.3125 C39.11549316 50.16861816 39.10598633 49.02473633 39.09619141 47.84619141 C38.77546931 34.84489618 35.16293692 24.58123047 25.6953125 15.37109375 C22.5730252 12.24399857 22.5730252 12.24399857 18.5625 11.1875 C18.5625 10.5275 18.5625 9.8675 18.5625 9.1875 C12.10562015 5.36654639 7.13918514 4.50967251 -0.3125 4.625 C-1.28759521 4.63378174 -2.26269043 4.64256348 -3.26733398 4.65161133 C-13.13490051 4.93240584 -19.97107316 7.49769511 -26.4375 15.1875 Z " fill="#7C5C7E" transform="translate(209.4375,358.8125)"/>
<path d="M0 0 C4.57307732 -0.850636 8.4501322 -1.0688267 13 0 C17.62585412 3.34948078 21.01626451 8.19851784 24 13 C24 13.99 24 14.98 24 16 C24.99 16.33 25.98 16.66 27 17 C28.52422233 18.64981368 29.97359886 20.36966137 31.375 22.125 C32.1690625 23.11757813 32.963125 24.11015625 33.78125 25.1328125 C35.53047185 27.39325059 37.23040934 29.66347791 38.875 32 C40.77502741 34.88373894 40.77502741 34.88373894 42.6328125 36.5625 C44 38 44 38 44 40 C44.66 40 45.32 40 46 40 C47.47265625 41.64453125 47.47265625 41.64453125 49.0625 43.8125 C49.58972656 44.52019531 50.11695313 45.22789062 50.66015625 45.95703125 C52 48 52 48 53 51 C53.99 51.66 54.98 52.32 56 53 C56 53.99 56 54.98 56 56 C56.99 56.33 57.98 56.66 59 57 C60.796875 58.96875 60.796875 58.96875 62.75 61.5 C63.38421875 62.3146875 64.0184375 63.129375 64.671875 63.96875 C65.44015625 64.9690625 66.2084375 65.969375 67 67 C69.31 69.97 71.62 72.94 74 76 C74 50.92 74 25.84 74 0 C76.31 0 78.62 0 81 0 C80.67 32.34 80.34 64.68 80 98 C76 98 76 98 74.10546875 96.3828125 C70.04035118 91.59739915 66.36332583 86.7088603 62.83203125 81.51953125 C60.94657252 78.92652297 58.92186654 76.60703456 56.75 74.25 C48.25473414 65.0203976 40.80307479 54.91494894 33.52783203 44.71020508 C31.23822566 41.33785669 31.23822566 41.33785669 28 39 C27.67 38.01 27.34 37.02 27 36 C26.195625 35.195625 25.39125 34.39125 24.5625 33.5625 C22.35026339 31.35026339 21.15801474 29.84239983 20 27 C19.34 27 18.68 27 18 27 C16.02 24.36 14.04 21.72 12 19 C12 45.4 12 71.8 12 99 C9.36 99 6.72 99 4 99 C4.02363113 97.87104813 4.04726227 96.74209625 4.0716095 95.57893372 C4.2909681 84.94110098 4.48365285 74.30307517 4.65021229 63.66428089 C4.73670125 58.19469458 4.83259027 52.72560971 4.94995117 47.2565918 C5.06286037 41.97891449 5.15109099 36.701349 5.22220421 31.42294884 C5.25367802 29.40896603 5.29405154 27.39510205 5.34345436 25.38147926 C5.4111302 22.56116461 5.44717482 19.74208605 5.47583008 16.92114258 C5.5031572 16.08820175 5.53048431 15.25526093 5.55863953 14.39707947 C5.56738659 10.01137167 5.48772066 8.55333492 2.47026062 5.12992859 C1.65507462 4.42705215 0.83988861 3.72417572 0 3 C0 2.01 0 1.02 0 0 Z " fill="#715174" transform="translate(76,360)"/>
<path d="M0 0 C0.99 0.99 0.99 0.99 2 2 C1.65372332 7.03585234 0.09996527 11.99587819 -3 16 C-3.66 16 -4.32 16 -5 16 C-5.29390625 14.91332031 -5.29390625 14.91332031 -5.59375 13.8046875 C-7.86016791 6.47790545 -10.25036711 2.67624488 -17 -1 C-18.02673828 -1.61681641 -18.02673828 -1.61681641 -19.07421875 -2.24609375 C-27.81625747 -6.65525464 -39.73819854 -6.64243973 -49.09765625 -4.1875 C-51.6714724 -3.01276299 -53.74690496 -1.70979553 -56 0 C-56.87140625 0.65484375 -57.7428125 1.3096875 -58.640625 1.984375 C-64.61735784 6.91255822 -68.28629104 11.76344279 -71 19 C-71.31710937 19.78375 -71.63421875 20.5675 -71.9609375 21.375 C-76.24565406 33.95398439 -75.77588894 50.05481791 -70 62 C-64.63532157 72.82211787 -57.95919906 78.19098083 -47 83 C-38.46353072 85.84548976 -26.19128336 85.21294516 -18.109375 81.26953125 C-11.15896749 77.08641562 -5.37808579 72.60069303 -2 65 C-1.01 65 -0.02 65 1 65 C3.24828052 69.49656104 3.16682272 73.07872966 3 78 C-15.3902612 87.43362102 -32.97250607 94.20536136 -54 88 C-68.3044203 82.34228152 -79.48619302 71.85153288 -85.9140625 57.859375 C-87.45886684 53.79176069 -87.96675089 50.32903369 -88 46 C-88.03738281 44.82050781 -88.07476562 43.64101563 -88.11328125 42.42578125 C-88.24618093 35.3960875 -88.33008265 28.68959213 -86 22 C-85.73960937 21.24976563 -85.47921875 20.49953125 -85.2109375 19.7265625 C-80.48914133 8.58889062 -70.213104 -2.37763563 -59 -7 C-57.824375 -7.5775 -56.64875 -8.155 -55.4375 -8.75 C-36.70929968 -15.56025466 -16.2437865 -10.09656074 0 0 Z " fill="#765678" transform="translate(351,370)"/>
<path d="M0 0 C1.87939453 0.26928711 1.87939453 0.26928711 4 1 C5.09326172 2.60375977 5.09326172 2.60375977 5.9296875 4.69140625 C6.24695801 5.46339355 6.56422852 6.23538086 6.89111328 7.03076172 C7.37813721 8.28397217 7.37813721 8.28397217 7.875 9.5625 C8.22159668 10.41859863 8.56819336 11.27469727 8.92529297 12.15673828 C11.34335504 18.175695 13.61422795 24.24921329 15.84448242 30.33984375 C17.83025785 35.70585024 20.14323051 40.87327389 22.60546875 46.03515625 C23.8559621 48.69376817 25.01482385 51.37886468 26.1628418 54.08276367 C28.16100926 58.65891096 30.36478474 63.14325662 32.51879883 67.64746094 C34.29601572 71.37361691 36.06294364 75.09742054 37.7109375 78.8828125 C41.94910535 88.97980539 41.94910535 88.97980539 50 96 C50 96.99 50 97.98 50 99 C43.07 99 36.14 99 29 99 C28.814375 96.999375 28.62875 94.99875 28.4375 92.9375 C27.41650148 85.51824411 24.84502426 79.61091393 21.4609375 72.984375 C20 70 20 70 20 68 C18.84628906 68.01160156 17.69257812 68.02320313 16.50390625 68.03515625 C2.6471656 68.12734247 -11.15946499 67.64247422 -25 67 C-23 65 -23 65 -21.12704468 64.75949097 C-20.36759552 64.76393219 -19.60814636 64.76837341 -18.82568359 64.77294922 C-17.96494232 64.77310028 -17.10420105 64.77325134 -16.21737671 64.77340698 C-15.28712677 64.78372955 -14.35687683 64.79405212 -13.3984375 64.8046875 C-12.44683746 64.8075174 -11.49523743 64.81034729 -10.51480103 64.81326294 C-7.46807408 64.82448011 -4.42163846 64.84958737 -1.375 64.875 C0.68749576 64.88502782 2.74999612 64.89415401 4.8125 64.90234375 C9.87511267 64.92442446 14.9375069 64.9589647 20 65 C19.37619308 63.58280758 18.7508997 62.1662694 18.125 60.75 C17.77695312 59.96109375 17.42890625 59.1721875 17.0703125 58.359375 C16.71710937 57.58078125 16.36390625 56.8021875 16 56 C15.66742187 55.26265625 15.33484375 54.5253125 14.9921875 53.765625 C14.11934186 51.82606368 14.11934186 51.82606368 12 51 C11.28077411 49.15056199 10.5714621 47.29671188 9.91015625 45.42578125 C8.93305951 42.8215878 7.80196132 40.33245167 6.625 37.8125 C3.77994124 31.65541235 1.37291396 25.3513314 -1 19 C-3.2236068 20.9254644 -3.2236068 20.9254644 -4 24 C-5.25 25.375 -5.25 25.375 -7 27 C-7.886875 27.886875 -8.77375 28.77375 -9.6875 29.6875 C-10.450625 30.450625 -11.21375 31.21375 -12 32 C-11.28410714 29.61369048 -10.56701352 27.22784085 -9.84375 24.84375 C-9.32034813 23.07969184 -8.81646563 21.30956117 -8.34375 19.53125 C-6.44107711 12.55478274 -3.38420234 6.37412868 0 0 Z " fill="#795A7D" transform="translate(691,360)"/>
<path d="M0 0 C0.77943466 0.00222061 1.55886932 0.00444122 2.36192322 0.00672913 C3.68317955 0.00684242 3.68317955 0.00684242 5.03112793 0.00695801 C5.98841293 0.01211929 6.94569794 0.01728058 7.93199158 0.02259827 C9.39480812 0.02472069 9.39480812 0.02472069 10.88717651 0.02688599 C14.01542675 0.03250319 17.14360656 0.04505859 20.27183533 0.05775452 C22.38706867 0.0627673 24.50230313 0.06733059 26.61753845 0.07142639 C31.81482829 0.0824782 37.01207678 0.09923305 42.20933533 0.12025452 C42.20933533 1.11025452 42.20933533 2.10025452 42.20933533 3.12025452 C31.97933533 3.12025452 21.74933533 3.12025452 11.20933533 3.12025452 C11.20933533 20.28025452 11.20933533 37.44025452 11.20933533 55.12025452 C18.46933533 55.12025452 25.72933533 55.12025452 33.20933533 55.12025452 C33.20933533 55.45025452 33.20933533 55.78025452 33.20933533 56.12025452 C25.94933533 56.12025452 18.68933533 56.12025452 11.20933533 56.12025452 C11.32927731 61.45894886 11.45194947 66.79743393 11.58164978 72.13587952 C11.62493518 73.95159686 11.66661477 75.76735322 11.70664978 77.58314514 C11.76450735 80.19459285 11.82815705 82.80584528 11.89292908 85.41712952 C11.90964157 86.22768799 11.92635406 87.03824646 11.943573 87.87336731 C12.0384955 91.49264419 12.32620507 94.58773349 13.20933533 98.12025452 C8.58933533 98.12025452 3.96933533 98.12025452 -0.79066467 98.12025452 C-0.46066467 96.80025452 -0.13066467 95.48025452 0.20933533 94.12025452 C0.31427006 91.22302283 0.36653007 88.34950438 0.37046814 85.45204163 C0.37543304 84.57845505 0.38039795 83.70486847 0.38551331 82.80480957 C0.4001028 79.91906444 0.40692986 77.03337419 0.41246033 74.14759827 C0.41821229 72.14267983 0.42397002 70.13776142 0.42973328 68.13284302 C0.44023262 63.9322738 0.44608298 59.73172368 0.4495697 55.53114319 C0.45506699 50.14166164 0.47912578 44.75243113 0.50754166 39.36302853 C0.52613369 35.223849 0.53137169 31.08473054 0.53290558 26.94551277 C0.53593796 24.95793338 0.54398611 22.9703552 0.55709076 20.9828167 C0.57408733 18.20803838 0.57228732 15.43388167 0.56578064 12.65907288 C0.57499542 11.83457642 0.58421021 11.01007996 0.59370422 10.16059875 C0.69387044 5.92504604 0.69387044 5.92504604 -1.31363297 2.38584232 C-1.80105343 1.96819835 -2.28847389 1.55055437 -2.79066467 1.12025452 C-1.79066467 0.12025452 -1.79066467 0.12025452 0 0 Z " fill="#846185" transform="translate(506.79066467285156,359.87974548339844)"/>
<path d="M0 0 C1.134375 0.020625 2.26875 0.04125 3.4375 0.0625 C3.33350136 1.01764244 3.33350136 1.01764244 3.22740173 1.99208069 C2.46601841 9.54433795 2.25761472 17.0342672 2.19140625 24.62109375 C2.15847881 27.21940455 2.12526699 29.81771176 2.09179688 32.41601562 C2.04348374 36.46195389 1.99948499 40.50791447 1.96069336 44.55395508 C1.92239305 48.49314099 1.86926184 52.432076 1.81640625 56.37109375 C1.8079921 57.5652037 1.79957794 58.75931366 1.79090881 59.98960876 C1.6079499 72.575466 0.94066521 83.1633894 -8.04296875 92.62109375 C-16.96688075 100.68371665 -28.23610951 100.56907022 -39.5625 100.0625 C-45.45346141 99.30700333 -50.38360884 96.83690598 -55.5625 94.0625 C-54.5725 93.5675 -54.5725 93.5675 -53.5625 93.0625 C-52.5725 93.3925 -51.5825 93.7225 -50.5625 94.0625 C-51.29076019 89.80497888 -53.43227996 87.83507331 -56.3828125 84.84375 C-57.5625 83.0625 -57.5625 83.0625 -57.2421875 80.84375 C-56.90574219 79.96203125 -56.90574219 79.96203125 -56.5625 79.0625 C-56.170625 79.784375 -55.77875 80.50625 -55.375 81.25 C-53.61368216 84.2006368 -53.61368216 84.2006368 -50.875 86.75 C-48.5625 89.0625 -48.5625 89.0625 -48.5625 91.0625 C-47.139375 91.5265625 -47.139375 91.5265625 -45.6875 92 C-42.5625 93.0625 -42.5625 93.0625 -40.5625 94.0625 C-27.30033335 95.20938215 -27.30033335 95.20938215 -15.25390625 90.55078125 C-9.97775786 85.90825807 -5.94989765 80.6203003 -5.17050171 73.46244812 C-5.14737969 72.11535717 -5.14010516 70.76793079 -5.14599609 69.4206543 C-5.13741074 68.68011307 -5.12882538 67.93957184 -5.11997986 67.17658997 C-5.09503046 64.74653457 -5.09055212 62.31689021 -5.0859375 59.88671875 C-5.07162138 58.19373841 -5.05586327 56.5007697 -5.03872681 54.80781555 C-4.99696331 50.36459655 -4.97190249 45.92144975 -4.95123291 41.47808838 C-4.91534313 34.34846389 -4.8545725 27.21901692 -4.79274368 20.08957863 C-4.77360585 17.59615249 -4.7619132 15.10277409 -4.75131226 12.60929871 C-4.7411068 11.09198907 -4.73074945 9.57468044 -4.72021484 8.05737305 C-4.71865135 7.01092117 -4.71865135 7.01092117 -4.71705627 5.94332886 C-4.66649384 0.08186831 -4.66649384 0.08186831 0 0 Z " fill="#412B44" transform="translate(499.5625,359.9375)"/>
<path d="M0 0 C4.22818271 0.30201305 6.32196752 2.95001856 9 6 C9 6.66 9 7.32 9 8 C9.66 8 10.32 8 11 8 C17.36605792 20.70937992 18.89471909 37.22909364 15.078125 50.99609375 C13.9381844 53.90146184 12.68665264 56.37974328 11 59 C10.49597656 59.81855469 9.99195313 60.63710938 9.47265625 61.48046875 C6.79485054 65.4392604 6.79485054 65.4392604 5 67 C3.68 67 2.36 67 1 67 C1 66.34 1 65.68 1 65 C0.01 65 -0.98 65 -2 65 C1 56 1 56 2.03442383 53.24707031 C3.72632242 47.55749984 3.32735622 41.76994879 3.3125 35.875 C3.33666992 33.99167969 3.33666992 33.99167969 3.36132812 32.0703125 C3.36596386 23.13260789 3.09914161 13.64871242 -2 6 C-1.45945946 1.45945946 -1.45945946 1.45945946 0 0 Z " fill="#805F83" transform="translate(244,376)"/>
<path d="M0 0 C5.42651086 0.33915693 9.30175882 3.23465364 13 7 C18.56242716 14.92913295 19.16341122 23.5763691 18 33 C17.02323308 36.27643662 15.99168635 38.15473378 14 41 C12.515 41.495 12.515 41.495 11 42 C10.71125 42.598125 10.4225 43.19625 10.125 43.8125 C8.5420606 46.89043772 6.9270897 48.12405392 4 50 C1.06554614 50.60872025 -1.82199662 50.69485241 -4.8125 50.75 C-5.99489258 50.79447266 -5.99489258 50.79447266 -7.20117188 50.83984375 C-9.13357446 50.91011293 -11.06679015 50.95737134 -13 51 C-11.515 50.505 -11.515 50.505 -10 50 C-10 49.34 -10 48.68 -10 48 C-8.68 48 -7.36 48 -6 48 C-5.938125 47.443125 -5.87625 46.88625 -5.8125 46.3125 C-4.66639359 43.05050482 -2.45961261 41.40241231 0 39 C5.10356539 31.91171473 5.57388892 26.56659635 5 18 C3.82429907 11.36238135 1.69381219 6.82067198 -3 2 C-2.34 2 -1.68 2 -1 2 C-0.67 1.34 -0.34 0.68 0 0 Z " fill="#856387" transform="translate(560,365)"/>
<path d="M0 0 C0.99 0.33 1.98 0.66 3 1 C3.33 1.99 3.66 2.98 4 4 C5.78190007 4.9719455 7.56480572 5.94227538 9.359375 6.890625 C11.69271157 8.46840497 12.1094411 10.39682784 13 13 C15.01735205 14.34410262 15.01735205 14.34410262 17 15 C17 15.99 17 16.98 17 18 C16.21625 18.20625 15.4325 18.4125 14.625 18.625 C11.69492149 19.76795366 11.69492149 19.76795366 11.0625 22.9375 C10 26 10 26 6.9375 27.6875 C5.968125 28.120625 4.99875 28.55375 4 29 C3.67 29.99 3.34 30.98 3 32 C2.01 32 1.02 32 0 32 C-0.33 30.68 -0.66 29.36 -1 28 C-2.60875 27.690625 -2.60875 27.690625 -4.25 27.375 C-8.77499623 25.71583472 -9.56731924 24.02650608 -12 20 C-14.10039331 18.61131484 -14.10039331 18.61131484 -16 18 C-15.505 16.515 -15.505 16.515 -15 15 C-14.360625 14.896875 -13.72125 14.79375 -13.0625 14.6875 C-12.0415625 14.3471875 -12.0415625 14.3471875 -11 14 C-10.7525 13.0925 -10.505 12.185 -10.25 11.25 C-8.64216831 7.06963761 -6.62397243 6.19995656 -2.77734375 4.17578125 C-0.67275004 3.04615978 -0.67275004 3.04615978 0 0 Z M-5 10 C-4.67 10.66 -4.34 11.32 -4 12 C-3.67 11.34 -3.34 10.68 -3 10 C-3.66 10 -4.32 10 -5 10 Z M-5 21 C-4 23 -4 23 -4 23 Z " fill="#7F5F84" transform="translate(208,393)"/>
<path d="M0 0 C24.42 0 48.84 0 74 0 C73 6 73 6 71 9 C71 6.69 71 4.38 71 2 C66.71 1.67 62.42 1.34 58 1 C58.99 2.65 59.98 4.3 61 6 C61.36076355 8.49946594 61.36076355 8.49946594 61.34057617 11.1574707 C61.34023628 12.65846062 61.34023628 12.65846062 61.33988953 14.18977356 C61.32440567 15.2576561 61.30892181 16.32553864 61.29296875 17.42578125 C61.28872391 18.52850876 61.28447906 19.63123627 61.28010559 20.76737976 C61.26333905 24.28267023 61.22568951 27.79738336 61.1875 31.3125 C61.17245059 33.69855942 61.15876264 36.08462784 61.14648438 38.47070312 C61.11344212 44.31399842 61.06326236 50.15695796 61 56 C60.67 56 60.34 56 60 56 C59.98786972 55.08917915 59.98786972 55.08917915 59.97549438 54.15995789 C59.88954977 47.84966809 59.79005074 41.5396961 59.68261719 35.22973633 C59.64429398 32.87367076 59.60944706 30.517546 59.578125 28.16137695 C59.53254726 24.77794213 59.47454048 21.39491592 59.4140625 18.01171875 C59.40251129 16.95538742 59.39096008 15.89905609 59.37905884 14.81071472 C59.35918915 13.82992447 59.33931946 12.84913422 59.31884766 11.83862305 C59.30552399 10.97480515 59.29220032 10.11098724 59.2784729 9.22099304 C59.1321786 6.71415113 59.1321786 6.71415113 57 4 C56.67 5.65 56.34 7.3 56 9 C52.8566851 8.5400027 49.91346025 7.97317268 46.875 7.03125 C42.49650386 5.75706299 38.08797433 5.32034696 33.5625 4.875 C32.03503105 4.71934217 30.50760887 4.56322493 28.98022461 4.40673828 C28.22897812 4.32996857 27.47773163 4.25319885 26.70372009 4.17410278 C25.86037865 4.08792191 25.86037865 4.08792191 25 4 C24.9183495 20.72798468 25.13263458 37.45120163 25.37231445 54.17700195 C25.42788067 58.07229642 25.47787925 61.96764281 25.52671719 65.86302662 C25.56574757 68.89748115 25.60879828 71.93186921 25.65294075 74.96625328 C25.67316501 76.40343905 25.69190804 77.84064653 25.70907402 79.27787209 C25.7333468 81.27881015 25.76389282 83.27966911 25.79467773 85.28051758 C25.81799416 86.97873405 25.81799416 86.97873405 25.84178162 88.71125793 C26.00762594 92.15851359 26.51192058 95.58344408 27 99 C22.05 99 17.1 99 12 99 C12 98.67 12 98.34 12 98 C17.94 97.505 17.94 97.505 24 97 C23.83734146 96.1906601 23.67468292 95.38132019 23.50709534 94.54745483 C22.91506465 90.40582311 22.86773631 86.41700165 22.88647461 82.24072266 C22.88632858 81.38153229 22.88618256 80.52234192 22.8860321 79.63711548 C22.88672571 76.81273831 22.8944922 73.98842807 22.90234375 71.1640625 C22.90420989 69.19965654 22.90563287 67.2352501 22.90663147 65.27084351 C22.91044121 60.11206772 22.92025829 54.95332029 22.93133545 49.79455566 C22.94158279 44.52580143 22.9461362 39.25704259 22.95117188 33.98828125 C22.96188197 23.65883973 22.97946624 13.32942667 23 3 C31.415 2.505 31.415 2.505 40 2 C20.2 1.505 20.2 1.505 0 1 C0 0.67 0 0.34 0 0 Z " fill="#6B526C" transform="translate(368,360)"/>
<path d="M0 0 C0.99 0.99 0.99 0.99 2 2 C1.65372332 7.03585234 0.09996527 11.99587819 -3 16 C-3.66 16 -4.32 16 -5 16 C-5.29390625 14.91332031 -5.29390625 14.91332031 -5.59375 13.8046875 C-7.86016791 6.47790545 -10.25036711 2.67624488 -17 -1 C-18.02673828 -1.61681641 -18.02673828 -1.61681641 -19.07421875 -2.24609375 C-27.81625747 -6.65525464 -39.73819854 -6.64243973 -49.09765625 -4.1875 C-55.67980888 -1.18328454 -60.87355042 3.99353116 -66 9 C-66 8.01 -66 7.02 -66 6 C-64.33333333 4.33333333 -62.66666667 2.66666667 -61 1 C-60.13880866 -1.17346568 -60.13880866 -1.17346568 -60 -3 C-60.99 -3.66 -61.98 -4.32 -63 -5 C-61.34036439 -5.826767 -59.67182204 -6.63566144 -58 -7.4375 C-57.071875 -7.88996094 -56.14375 -8.34242188 -55.1875 -8.80859375 C-36.69256742 -15.72152811 -16.02031163 -9.9576567 0 0 Z " fill="#402C43" transform="translate(351,370)"/>
<path d="M0 0 C0.99 0 1.98 0 3 0 C5.24828052 4.49656104 5.16682272 8.07872966 5 13 C-13.35831279 22.4172325 -31.00894163 29.25603404 -52 23 C-61.43776824 19.12446352 -61.43776824 19.12446352 -63 16 C-60.6568787 16.25561323 -58.32156597 16.59270772 -56 17 C-55.67 17.66 -55.34 18.32 -55 19 C-54.01 18.67 -53.02 18.34 -52 18 C-52.62648438 17.54109375 -53.25296875 17.0821875 -53.8984375 16.609375 C-54.71570313 15.99578125 -55.53296875 15.3821875 -56.375 14.75 C-57.18710937 14.14671875 -57.99921875 13.5434375 -58.8359375 12.921875 C-60.96826778 11.02818096 -61.94636704 9.61671482 -63 7 C-62.53851563 7.37511719 -62.07703125 7.75023437 -61.6015625 8.13671875 C-49.76454514 17.42386478 -38.85545974 20.23431146 -24 19 C-15.15673459 17.06795075 -7.10439617 11.46027133 -2 4 C-1.29114106 2.68861096 -0.60543548 1.36222983 0 0 Z " fill="#4E3951" transform="translate(349,435)"/>
<path d="M0 0 C1.34285801 4.02857402 0.19861924 5.67192204 -1.375 9.5625 C-1.83648437 10.71878906 -2.29796875 11.87507813 -2.7734375 13.06640625 C-3.46942608 14.73101588 -4.19311397 16.38622794 -5 18 C-4.01 18 -3.02 18 -2 18 C-2 18.66 -2 19.32 -2 20 C-0.515 20.495 -0.515 20.495 1 21 C-14.36794368 33.73962333 -27.19906851 37.83522448 -47 37 C-51.29906107 36.39033783 -55.22685879 35.20099904 -59 33 C-57.68 32.34 -56.36 31.68 -55 31 C-55.64066406 30.52691406 -56.28132812 30.05382812 -56.94140625 29.56640625 C-62.73480242 25.13717788 -68.44774653 20.50177801 -72 14 C-71.67 13.01 -71.34 12.02 -71 11 C-70.59910156 11.64066406 -70.19820312 12.28132813 -69.78515625 12.94140625 C-63.9754513 21.78111605 -57.38133863 28.19755563 -47 31 C-38.17918283 32.232649 -27.96309436 32.46882087 -20.20703125 27.6875 C-9.73906982 19.68367816 -4.17350528 12.47611686 0 0 Z " fill="#573F59" transform="translate(247,423)"/>
<path d="M0 0 C0.33 0 0.66 0 1 0 C1.33 28.05 1.66 56.1 2 85 C2.33 58.6 2.66 32.2 3 5 C6.1519344 8.1519344 9.17852789 11.24049714 12.125 14.5625 C12.78757812 15.30628906 13.45015625 16.05007813 14.1328125 16.81640625 C15.8474247 18.82156989 17.44471712 20.86993866 19 23 C18.67 23.66 18.34 24.32 18 25 C16.62437146 23.71034824 15.29233607 22.37310707 14 21 C14 20.34 14 19.68 14 19 C13.34 19 12.68 19 12 19 C10.02 16.36 8.04 13.72 6 11 C6 37.4 6 63.8 6 91 C3.36 91 0.72 91 -2 91 C-1.89225505 80.31624877 -1.77957332 69.63256194 -1.66066074 58.94892883 C-1.60559325 53.9876213 -1.55219998 49.02630772 -1.50268555 44.06494141 C-1.45480236 39.27328627 -1.40245251 34.48169851 -1.34705925 29.69012451 C-1.32674373 27.86580085 -1.30801359 26.0414588 -1.29092598 24.21710205 C-1.26664102 21.65378201 -1.2366219 19.09058646 -1.20532227 16.52734375 C-1.1995668 15.77999466 -1.19381134 15.03264557 -1.18788147 14.26264954 C-1.12130733 9.43818167 -0.67151258 4.77897711 0 0 Z " fill="#392C3D" transform="translate(82,368)"/>
<path d="M0 0 C1.134375 0.020625 2.26875 0.04125 3.4375 0.0625 C3.36898331 0.69436722 3.30046661 1.32623444 3.22987366 1.97724915 C2.4564503 9.67031138 2.22577657 17.31489133 2.12109375 25.04296875 C2.10031265 26.33697098 2.07953156 27.63097321 2.05812073 28.96418762 C2.00354457 32.36540009 1.95385774 35.76666612 1.90527344 39.16796875 C1.85458036 42.65434399 1.79914671 46.14064373 1.74414062 49.62695312 C1.63735048 56.43873638 1.53573788 63.25058817 1.4375 70.0625 C1.1075 70.0625 0.7775 70.0625 0.4375 70.0625 C-0.0575 52.7375 -0.0575 52.7375 -0.5625 35.0625 C-0.85130855 46.35571703 -0.85130855 46.35571703 -1.13061523 57.64916992 C-1.16876572 59.07211208 -1.20723717 60.49504569 -1.24609375 61.91796875 C-1.26256958 62.64810181 -1.27904541 63.37823486 -1.29602051 64.13049316 C-1.40258837 67.87951236 -1.68204233 71.41220396 -2.5625 75.0625 C-3.2225 75.0625 -3.8825 75.0625 -4.5625 75.0625 C-4.58562465 65.43137288 -4.60341571 55.80025526 -4.61431217 46.16910648 C-4.61954074 41.69744451 -4.62663789 37.22580147 -4.63793945 32.75415039 C-4.64876929 28.44238027 -4.65477704 24.13062841 -4.65737724 19.81884575 C-4.65923132 18.17013702 -4.6628516 16.52142934 -4.66823006 14.87272835 C-4.67544178 12.57146128 -4.67649089 10.2702706 -4.67602539 7.96899414 C-4.678246 6.6566127 -4.68046661 5.34423126 -4.68275452 3.99208069 C-4.50704955 -0.28835625 -4.39958907 0.07718577 0 0 Z " fill="#423044" transform="translate(499.5625,359.9375)"/>
<path d="M0 0 C0.80759766 -0.01224609 1.61519531 -0.02449219 2.44726562 -0.03710938 C16.88149545 -0.07200276 28.65508787 6.43057495 38.8203125 16.40234375 C39.39523438 16.99144531 39.97015625 17.58054687 40.5625 18.1875 C40.2325 18.8475 39.9025 19.5075 39.5625 20.1875 C38.9025 19.5275 38.2425 18.8675 37.5625 18.1875 C36.5725 18.1875 35.5825 18.1875 34.5625 18.1875 C33.77579449 20.44510857 33.77579449 20.44510857 33.5625 23.1875 C34.54439187 24.86489862 35.54383771 26.53217377 36.5625 28.1875 C36.15625 30.33984375 36.15625 30.33984375 35.5625 32.1875 C35.32015625 31.67960937 35.0778125 31.17171875 34.828125 30.6484375 C30.98791043 22.76122758 26.69975641 15.25612821 18.5625 11.1875 C18.5625 10.5275 18.5625 9.8675 18.5625 9.1875 C17.428125 8.878125 16.29375 8.56875 15.125 8.25 C11.5625 7.1875 11.5625 7.1875 10.5625 6.1875 C8.78380274 6.02985595 6.99931524 5.93649323 5.21484375 5.87109375 C4.13525391 5.82919922 3.05566406 5.78730469 1.94335938 5.74414062 C0.23889648 5.68516602 0.23889648 5.68516602 -1.5 5.625 C-2.64017578 5.58181641 -3.78035156 5.53863281 -4.95507812 5.49414062 C-7.78242195 5.38767161 -10.60985738 5.28565793 -13.4375 5.1875 C-13.4375 4.5275 -13.4375 3.8675 -13.4375 3.1875 C-16.4075 3.8475 -19.3775 4.5075 -22.4375 5.1875 C-21.4375 3.1875 -21.4375 3.1875 -19.3125 2.125 C-12.99999935 0.06657587 -6.57232328 0.00522027 0 0 Z " fill="#4D3850" transform="translate(209.4375,358.8125)"/>
<path d="M0 0 C1 2 1 2 0.0625 5 C-0.288125 5.99 -0.63875 6.98 -1 8 C-1 8.66 -1 9.32 -1 10 C0.32 8.02 1.64 6.04 3 4 C4 7 4 7 2.890625 9.41796875 C2.34921875 10.33191406 1.8078125 11.24585938 1.25 12.1875 C-0.9316145 16.0191172 -2.77963166 19.66858817 -4.21484375 23.828125 C-5.60659947 27.67795675 -7.28945366 31.41167619 -8.9140625 35.16796875 C-10.20512685 38.29780218 -10.20512685 38.29780218 -11 43 C1.21 43 13.42 43 26 43 C24.68 39.7 23.36 36.4 22 33 C22.495 32.01 22.495 32.01 23 31 C23.63032133 32.20556604 24.2539497 33.41463189 24.875 34.625 C25.22304688 35.29789062 25.57109375 35.97078125 25.9296875 36.6640625 C27.16314667 39.35606463 28.06360815 42.19082445 29 45 C14.81 45 0.62 45 -14 45 C-13.2817669 40.6906014 -12.69268808 37.83675965 -11 34 C-11.45375 34.45375 -11.9075 34.9075 -12.375 35.375 C-13.58333333 36.58333333 -14.79166667 37.79166667 -16 39 C-15.4277623 34.71317426 -14.39535021 31.17203687 -12.63671875 27.2265625 C-12.16169922 26.1540625 -11.68667969 25.0815625 -11.19726562 23.9765625 C-10.69904297 22.87054688 -10.20082031 21.76453125 -9.6875 20.625 C-8.95756836 18.97757812 -8.95756836 18.97757812 -8.21289062 17.296875 C-5.61118901 11.45617743 -2.91470429 5.69094282 0 0 Z " fill="#4D3450" transform="translate(682,380)"/>
<path d="M0 0 C8.35604498 1.30135127 15.41617972 3.5134831 22 9 C21.67 9.66 21.34 10.32 21 11 C20.52949219 10.65066406 20.05898438 10.30132812 19.57421875 9.94140625 C18.95160156 9.48636719 18.32898438 9.03132813 17.6875 8.5625 C17.07261719 8.11003906 16.45773437 7.65757812 15.82421875 7.19140625 C13.90322899 5.82663692 13.90322899 5.82663692 11 5 C10.67 5.99 10.34 6.98 10 8 C11.87197454 10.69433317 11.87197454 10.69433317 14 13 C13.67 13.66 13.34 14.32 13 15 C12.22076172 14.27683594 12.22076172 14.27683594 11.42578125 13.5390625 C10.72839844 12.90742188 10.03101563 12.27578125 9.3125 11.625 C8.28576172 10.68527344 8.28576172 10.68527344 7.23828125 9.7265625 C2.75552635 6.26866081 -1.48113474 5.69899623 -7.05078125 5.3671875 C-8.25645752 5.29097168 -9.46213379 5.21475586 -10.7043457 5.13623047 C-12.22503662 5.05002441 -13.74572754 4.96381836 -15.3125 4.875 C-20.159375 4.58625 -25.00625 4.2975 -30 4 C-30 20.17 -30 36.34 -30 53 C-25.05 52.67 -20.1 52.34 -15 52 C-10.65896289 51.9635207 -6.33767136 51.93416688 -2 52 C-2 52.66 -2 53.32 -2 54 C-11.57 54 -21.14 54 -31 54 C-31 37.17 -31 20.34 -31 3 C-20.77 3 -10.54 3 0 3 C0 2.01 0 1.02 0 0 Z " fill="#4B344E" transform="translate(549,360)"/>
<path d="M0 0 C2.39721237 -0.02711907 4.79411393 -0.04689607 7.19140625 -0.0625 C7.86546509 -0.07087891 8.53952393 -0.07925781 9.23400879 -0.08789062 C14.1941785 -0.1120792 18.30665052 0.46747772 23 2 C20.01668694 2.99443769 18.79161241 3.02452065 15.76953125 2.66015625 C14.68442261 2.53459351 14.68442261 2.53459351 13.57739258 2.40649414 C12.66497803 2.29297607 11.75256348 2.17945801 10.8125 2.0625 C9.24053318 1.87251262 7.66850786 1.68300895 6.09643555 1.49389648 C4.93666451 1.35406593 4.93666451 1.35406593 3.75346375 1.21141052 C3.17482071 1.14164505 2.59617767 1.07187958 2 1 C1.9183495 17.72798468 2.13263458 34.45120163 2.37231445 51.17700195 C2.42788067 55.07229642 2.47787925 58.96764281 2.52671719 62.86302662 C2.56574757 65.89748115 2.60879828 68.93186921 2.65294075 71.96625328 C2.67316501 73.40343905 2.69190804 74.84064653 2.70907402 76.27787209 C2.7333468 78.27881015 2.76389282 80.27966911 2.79467773 82.28051758 C2.81022202 83.4126619 2.8257663 84.54480621 2.84178162 85.71125793 C3.00762594 89.15851359 3.51192058 92.58344408 4 96 C-0.95 96 -5.9 96 -11 96 C-11 95.67 -11 95.34 -11 95 C-5.06 94.505 -5.06 94.505 1 94 C0.83734146 93.1906601 0.67468292 92.38132019 0.50709534 91.54745483 C-0.08493535 87.40582311 -0.13226369 83.41700165 -0.11352539 79.24072266 C-0.11367142 78.38153229 -0.11381744 77.52234192 -0.1139679 76.63711548 C-0.11327429 73.81273831 -0.1055078 70.98842807 -0.09765625 68.1640625 C-0.09579011 66.19965654 -0.09436713 64.2352501 -0.09336853 62.27084351 C-0.08955879 57.11206772 -0.07974171 51.95332029 -0.06866455 46.79455566 C-0.05841721 41.52580143 -0.0538638 36.25704259 -0.04882812 30.98828125 C-0.03811803 20.65884174 -0.02106018 10.32942323 0 0 Z " fill="#3A243D" transform="translate(391,363)"/>
<path d="M0 0 C2.31 0 4.62 0 7 0 C7 1.32 7 2.64 7 4 C6.34 4 5.68 4 5 4 C4.67 32.71 4.34 61.42 4 91 C3.67 91 3.34 91 3 91 C2.09870271 82.20227699 1.81981062 73.44592473 1.73963928 64.61108971 C1.71824011 62.26839784 1.69126183 59.92582431 1.66296387 57.58320618 C1.59387233 51.77475105 1.53377667 45.96621046 1.47393799 40.15765381 C1.42280767 35.22304134 1.36796485 30.28849767 1.30812073 25.35398293 C1.28176888 23.05694815 1.26083406 20.75990574 1.2401123 18.46281433 C1.22349912 17.04641401 1.2066264 15.63001669 1.18945312 14.21362305 C1.17692505 12.98628952 1.16439697 11.75895599 1.15148926 10.49443054 C0.99737374 6.93941967 0.56220964 3.51168385 0 0 Z " fill="#87698D" transform="translate(150,360)"/>
<path d="M0 0 C5.50205776 5.47583008 5.50205776 5.47583008 7.67578125 8.11328125 C8.11083984 8.63857422 8.54589844 9.16386719 8.99414062 9.70507812 C9.64672852 10.50075195 9.64672852 10.50075195 10.3125 11.3125 C10.76689453 11.86228516 11.22128906 12.41207031 11.68945312 12.97851562 C12.79525852 14.31712216 13.89795939 15.65829231 15 17 C14.67 17.66 14.34 18.32 14 19 C10.37 14.71 6.74 10.42 3 6 C3 31.41 3 56.82 3 83 C1 82 1 82 0 79 C-0.09091937 76.45971451 -0.1260708 73.94749397 -0.11352539 71.4074707 C-0.11367142 70.63650055 -0.11381744 69.8655304 -0.1139679 69.07119751 C-0.11327119 66.52269681 -0.1054901 63.97426918 -0.09765625 61.42578125 C-0.09579121 59.65886983 -0.09436771 57.8919579 -0.09336853 56.12504578 C-0.08955012 51.47421847 -0.07972558 46.82342239 -0.06866455 42.17260742 C-0.05843591 37.42692487 -0.05386779 32.68123727 -0.04882812 27.93554688 C-0.03810273 18.6236842 -0.02103439 9.3118447 0 0 Z " fill="#220F28" transform="translate(584,374)"/>
<path d="M0 0 C7.53082794 -0.83675866 11.93272394 1.64689859 18 6 C18.66 6.66 19.32 7.32 20 8 C19.65372332 13.03585234 18.09996527 17.99587819 15 22 C14.34 22 13.68 22 13 22 C12.78085937 21.26394531 12.56171875 20.52789062 12.3359375 19.76953125 C10.22545511 13.27507933 8.57500015 9.91436181 3 6 C0 2.5 0 2.5 0 0 Z " fill="#684D6B" transform="translate(333,364)"/>
<path d="M0 0 C2.31 0 4.62 0 7 0 C7 4 7 4 6.51283264 5.80853271 C5.78791745 8.90628391 5.83359152 11.88366432 5.79467773 15.06347656 C5.78477814 15.76631775 5.77487854 16.46915894 5.76467896 17.19329834 C5.73317216 19.50904 5.70834951 21.82480215 5.68359375 24.140625 C5.66301487 25.74917118 5.64201815 27.35771206 5.62062073 28.96624756 C5.56549652 33.1944957 5.51604479 37.42279186 5.46777344 41.65112305 C5.41748784 45.96797954 5.36183865 50.28476652 5.30664062 54.6015625 C5.19917714 63.06764951 5.09770608 71.53379478 5 80 C4.01 80.495 4.01 80.495 3 81 C2.67 55.26 2.34 29.52 2 3 C1.34 3 0.68 3 0 3 C0 2.01 0 1.02 0 0 Z " fill="#846B87" transform="translate(647,360)"/>
<path d="M0 0 C0.66 0.33 1.32 0.66 2 1 C2.02481649 6.56843749 2.04291507 12.13684241 2.05493164 17.70532227 C2.05994403 19.59758058 2.06675567 21.48983505 2.07543945 23.38208008 C2.08764098 26.11019848 2.09325938 28.83826543 2.09765625 31.56640625 C2.10281754 32.40522842 2.10797882 33.2440506 2.11329651 34.10829163 C2.11452762 47.15275229 2.11452762 47.15275229 -1.875 52.75 C-2.64457031 53.85601562 -2.64457031 53.85601562 -3.4296875 54.984375 C-4.86876853 56.83155364 -6.21241185 58.48742541 -8 60 C-10.6875 60.1875 -10.6875 60.1875 -13 60 C-11.60096307 56.69318545 -9.56268455 54.29385473 -7.2421875 51.58203125 C-4.63297546 48.25897818 -3 45.23012013 -3 41 C-2.34 41 -1.68 41 -1 41 C-0.67 27.47 -0.34 13.94 0 0 Z " fill="#856685" transform="translate(498,394)"/>
<path d="M0 0 C0.77943466 0.00222061 1.55886932 0.00444122 2.36192322 0.00672913 C3.68317955 0.00684242 3.68317955 0.00684242 5.03112793 0.00695801 C5.98841293 0.01211929 6.94569794 0.01728058 7.93199158 0.02259827 C9.39480812 0.02472069 9.39480812 0.02472069 10.88717651 0.02688599 C14.01542675 0.03250319 17.14360656 0.04505859 20.27183533 0.05775452 C22.38706867 0.0627673 24.50230313 0.06733059 26.61753845 0.07142639 C31.81482829 0.0824782 37.01207678 0.09923305 42.20933533 0.12025452 C42.20933533 1.11025452 42.20933533 2.10025452 42.20933533 3.12025452 C31.97933533 3.12025452 21.74933533 3.12025452 11.20933533 3.12025452 C11.20933533 7.41025452 11.20933533 11.70025452 11.20933533 16.12025452 C10.87933533 16.12025452 10.54933533 16.12025452 10.20933533 16.12025452 C10.14874939 15.27720764 10.08816345 14.43416077 10.02574158 13.56556702 C9.94195251 12.46986389 9.85816345 11.37416077 9.77183533 10.24525452 C9.69062439 9.15470764 9.60941345 8.06416077 9.52574158 6.94056702 C9.37931829 4.17296481 9.37931829 4.17296481 8.20933533 2.12025452 C5.89933533 2.12025452 3.58933533 2.12025452 1.20933533 2.12025452 C0.87933533 2.78025452 0.54933533 3.44025452 0.20933533 4.12025452 C-0.78066467 3.13025452 -1.77066467 2.14025452 -2.79066467 1.12025452 C-1.79066467 0.12025452 -1.79066467 0.12025452 0 0 Z " fill="#816381" transform="translate(506.79066467285156,359.87974548339844)"/>
<path d="M0 0 C0.33 0 0.66 0 1 0 C1.66 28.05 2.32 56.1 3 85 C1.35 85 -0.3 85 -2 85 C-1.67 84.01 -1.34 83.02 -1 82 C-0.34 82 0.32 82 1 82 C0.83734146 81.49704407 0.67468292 80.99408813 0.50709534 80.47589111 C-0.18196216 77.11157044 -0.13071234 73.80363499 -0.11352539 70.38574219 C-0.11367142 69.62437958 -0.11381744 68.86301697 -0.1139679 68.07858276 C-0.11327255 65.56798429 -0.10549787 63.05746048 -0.09765625 60.546875 C-0.09579073 58.80381308 -0.09436746 57.06075063 -0.09336853 55.31768799 C-0.08955394 50.73427884 -0.07973267 46.15090149 -0.06866455 41.56750488 C-0.0584277 36.88875763 -0.05386604 32.21000523 -0.04882812 27.53125 C-0.03810946 18.35415272 -0.02104572 9.177079 0 0 Z " fill="#836286" transform="translate(582,372)"/>
<path d="M0 0 C12.59282511 -0.92017937 12.59282511 -0.92017937 16.04296875 1.3359375 C17.375 3 17.375 3 19 6 C18.67 6.66 18.34 7.32 18 8 C17.38125 7.01 16.7625 6.02 16.125 5 C14.25860227 2.69540454 13.41558705 2.06471737 10.44140625 1.6015625 C7.93736616 1.62287348 5.48990843 1.73892222 3 2 C3.65063416 2.65425461 4.30126831 3.30850922 4.97161865 3.98258972 C7.53509853 7.79600998 7.53716709 10.84555276 7.45410156 15.27856445 C7.45468567 16.09859451 7.45526978 16.91862457 7.45587158 17.76350403 C7.45309317 20.463866 7.42201345 23.16311302 7.390625 25.86328125 C7.38316173 27.7394297 7.3774692 29.61558596 7.37347412 31.491745 C7.35822458 36.42222739 7.31894857 41.35223609 7.2746582 46.28253174 C7.23369087 51.31654452 7.21545998 56.35063408 7.1953125 61.38476562 C7.1524537 71.25671817 7.08421054 81.12831965 7 91 C6.67 91 6.34 91 6 91 C5.99857498 89.98602142 5.99714996 88.97204285 5.99568176 87.92733765 C5.97899982 78.36349375 5.93618968 68.80007469 5.86790943 59.23645592 C5.83364362 54.31984757 5.80853008 49.40354981 5.80444336 44.48681641 C5.80015954 39.74030051 5.77168995 34.99448522 5.72656822 30.24818802 C5.71359588 28.43898222 5.70928462 26.62969257 5.71384621 24.82044601 C5.71875424 22.28236342 5.69265337 19.74632689 5.65942383 17.20849609 C5.66804947 16.46330719 5.67667511 15.71811829 5.68556213 14.9503479 C5.55884396 9.16288333 3.73679284 7.06458168 0 3 C0 2.01 0 1.02 0 0 Z " fill="#38253B" transform="translate(574,360)"/>
<path d="M0 0 C0.33 0.66 0.66 1.32 1 2 C2.794375 2.0928125 2.794375 2.0928125 4.625 2.1875 C10.03616739 2.67587251 12.66215639 6.00501844 16 10 C15.67 10.66 15.34 11.32 15 12 C14.34 11.34 13.68 10.68 13 10 C12.01 10 11.02 10 10 10 C9.21329449 12.25760857 9.21329449 12.25760857 9 15 C9.98189187 16.67739862 10.98133771 18.34467377 12 20 C11.59375 22.15234375 11.59375 22.15234375 11 24 C10.75765625 23.49210937 10.5153125 22.98421875 10.265625 22.4609375 C6.9986869 15.75114925 3.19689916 10.0381763 -1.828125 4.515625 C-3 3 -3 3 -3 1 C-2.01 0.67 -1.02 0.34 0 0 Z " fill="#614864" transform="translate(234,367)"/>
<path d="M0 0 C5.50205776 5.47583008 5.50205776 5.47583008 7.67578125 8.11328125 C8.11083984 8.63857422 8.54589844 9.16386719 8.99414062 9.70507812 C9.64672852 10.50075195 9.64672852 10.50075195 10.3125 11.3125 C10.76689453 11.86228516 11.22128906 12.41207031 11.68945312 12.97851562 C12.79525852 14.31712216 13.89795939 15.65829231 15 17 C14.67 17.66 14.34 18.32 14 19 C12.62437146 17.71034824 11.29233607 16.37310707 10 15 C10 14.34 10 13.68 10 13 C9.34 13 8.68 13 8 13 C6.02 10.36 4.04 7.72 2 5 C2 30.41 2 55.82 2 82 C-0.48839325 79.51160675 -0.23503088 78.06910338 -0.24884033 74.67425537 C-0.24164978 73.93338684 -0.23445923 73.19251831 -0.22705078 72.42919922 C-0.22748886 71.25833267 -0.22748886 71.25833267 -0.22793579 70.06381226 C-0.22653968 67.47732522 -0.21096542 64.89112436 -0.1953125 62.3046875 C-0.19158337 60.51392779 -0.18873592 58.72316604 -0.18673706 56.93240356 C-0.17909275 52.21411528 -0.15943745 47.49594969 -0.1373291 42.77770996 C-0.11688782 37.96510478 -0.10773903 33.15247981 -0.09765625 28.33984375 C-0.07619228 18.89317519 -0.04204675 9.44659779 0 0 Z " fill="#170D1A" transform="translate(86,374)"/>
<path d="M0 0 C2.16852722 2.16852722 2.80491264 3.67908497 3.91796875 6.5078125 C4.28599609 7.41273438 4.65402344 8.31765625 5.03320312 9.25 C5.79192739 11.13974977 6.54219596 13.0329205 7.28320312 14.9296875 C9.94186424 21.40931597 13.4269319 28.71346595 20 32 C20 32.99 20 33.98 20 35 C13.07 35 6.14 35 -1 35 C-1 32.03 -1 29.06 -1 26 C-0.34 26 0.32 26 1 26 C1.33 27.98 1.66 29.96 2 32 C6.62 32 11.24 32 16 32 C14.989375 31.01 13.97875 30.02 12.9375 29 C8.34789199 23.82269828 6.05786596 17.83881563 3.48046875 11.51171875 C2.11888889 7.97476536 2.11888889 7.97476536 0 5 C-0.125 2.3125 -0.125 2.3125 0 0 Z " fill="#3B293F" transform="translate(721,424)"/>
<path d="M0 0 C1 2 1 2 0.25 5.4375 C-1.40856031 10.16439689 -1.40856031 10.16439689 -4 12 C-4.66 12 -5.32 12 -6 12 C-6.33 11.34 -6.66 10.68 -7 10 C-8.65 11.32 -10.3 12.64 -12 14 C-10.35 14.99 -8.7 15.98 -7 17 C-6.67 16.34 -6.34 15.68 -6 15 C-5.01 15.33 -4.02 15.66 -3 16 C-3 16.66 -3 17.32 -3 18 C-2.01 18 -1.02 18 0 18 C0 18.99 0 19.98 0 21 C-1.65 21 -3.3 21 -5 21 C-5 21.66 -5 22.32 -5 23 C-8 22 -8 22 -9.4375 19.5625 C-11.09552981 16.84333111 -12.08436939 16.10592885 -15 15 C-14.67 14.01 -14.34 13.02 -14 12 C-13.360625 11.896875 -12.72125 11.79375 -12.0625 11.6875 C-11.0415625 11.3471875 -11.0415625 11.3471875 -10 11 C-9.7525 10.0925 -9.505 9.185 -9.25 8.25 C-7.46706166 3.61436032 -4.2635962 2.24086684 0 0 Z M-4 7 C-3.67 7.66 -3.34 8.32 -3 9 C-2.67 8.34 -2.34 7.68 -2 7 C-2.66 7 -3.32 7 -4 7 Z M-4 18 C-3 20 -3 20 -3 20 Z " fill="#261928" transform="translate(207,396)"/>
<path d="M0 0 C0.515625 0.66 1.03125 1.32 1.5625 2 C2.366875 2.99 3.17125 3.98 4 5 C4.49757812 5.639375 4.99515625 6.27875 5.5078125 6.9375 C9.70727665 12.09405132 13.95793785 15.24584446 20 18 C20.76441406 18.3609375 21.52882812 18.721875 22.31640625 19.09375 C25.67945454 20.2294519 28.77283616 20.42651418 32.3125 20.625 C33.56675781 20.69976562 34.82101563 20.77453125 36.11328125 20.8515625 C37.06589844 20.90054687 38.01851562 20.94953125 39 21 C39 21.33 39 21.66 39 22 C36.41659616 22.02703562 33.83347692 22.04685611 31.25 22.0625 C30.52039063 22.07087891 29.79078125 22.07925781 29.0390625 22.08789062 C25.51329442 22.10391684 22.38965084 21.95292713 19 21 C19 21.66 19 22.32 19 23 C26.26 23.66 33.52 24.32 41 25 C41 25.33 41 25.66 41 26 C20.62032086 26.44518717 20.62032086 26.44518717 13 22 C14.32 21.34 15.64 20.68 17 20 C16.35933594 19.52691406 15.71867188 19.05382812 15.05859375 18.56640625 C9.17176078 14.06574259 3.83151372 9.43237568 0 3 C0 2.01 0 1.02 0 0 Z " fill="#1E1022" transform="translate(175,434)"/>
<path d="M0 0 C0.33 0 0.66 0 1 0 C1 12.21 1 24.42 1 37 C1.66 37 2.32 37 3 37 C3.02705308 39.41674224 3.04686438 41.8331794 3.0625 44.25 C3.07087891 44.93191406 3.07925781 45.61382812 3.08789062 46.31640625 C3.10446154 49.73001462 2.90528197 52.71835286 2 56 C1.93451508 57.58211573 1.91421619 59.16670081 1.9375 60.75 C1.94652344 61.54921875 1.95554687 62.3484375 1.96484375 63.171875 C1.97644531 63.77515625 1.98804688 64.3784375 2 65 C-0.08279834 61.57382477 -0.24347603 58.92119811 -0.22705078 54.94628906 C-0.22689972 53.72532532 -0.22674866 52.50436157 -0.22659302 51.24639893 C-0.21627045 49.93274353 -0.20594788 48.61908813 -0.1953125 47.265625 C-0.19158042 45.90370898 -0.18873437 44.54179027 -0.18673706 43.17987061 C-0.17911594 39.60252414 -0.15948069 36.02534115 -0.1373291 32.44805908 C-0.11683778 28.7948223 -0.10772833 25.14155899 -0.09765625 21.48828125 C-0.07623322 14.32544647 -0.04211582 7.16274617 0 0 Z " fill="#765B79" transform="translate(429,370)"/>
<path d="M0 0 C2.7084017 -0.02714434 5.41652721 -0.04690846 8.125 -0.0625 C8.88554687 -0.07087891 9.64609375 -0.07925781 10.4296875 -0.08789062 C14.7389644 -0.10646509 18.75516474 0.13882735 23 1 C23 1.99 23 2.98 23 4 C21.48019531 4.03867187 21.48019531 4.03867187 19.9296875 4.078125 C18.57808403 4.13444181 17.22652319 4.19178833 15.875 4.25 C15.20984375 4.26417969 14.5446875 4.27835937 13.859375 4.29296875 C8.80359359 4.54080117 6.0111221 6.02439013 2 9 C1.34 9 0.68 9 0 9 C0 6.03 0 3.06 0 0 Z " fill="#836A85" transform="translate(351,360)"/>
<path d="M0 0 C0.99 0 1.98 0 3 0 C4.99785435 4.1205746 5.17835515 7.45194365 5 12 C-2.28571429 15.42857143 -2.28571429 15.42857143 -7 15 C-5.63408831 11.45756548 -4.09068516 8.07372071 -2.375 4.6875 C-1.70597656 3.36298828 -1.70597656 3.36298828 -1.0234375 2.01171875 C-0.68570312 1.34785156 -0.34796875 0.68398438 0 0 Z " fill="#826382" transform="translate(349,435)"/>
<path d="M0 0 C6.27 0 12.54 0 19 0 C18 6 18 6 16 9 C16 6.69 16 4.38 16 2 C11.71 1.67 7.42 1.34 3 1 C3.99 2.65 4.98 4.3 6 6 C6.36076355 8.49946594 6.36076355 8.49946594 6.34057617 11.1574707 C6.34034958 12.15813065 6.34012299 13.15879059 6.33988953 14.18977356 C6.32440567 15.2576561 6.30892181 16.32553864 6.29296875 17.42578125 C6.28872391 18.52850876 6.28447906 19.63123627 6.28010559 20.76737976 C6.26333905 24.28267023 6.22568951 27.79738336 6.1875 31.3125 C6.17245059 33.69855942 6.15876264 36.08462784 6.14648438 38.47070312 C6.11344212 44.31399842 6.06326236 50.15695796 6 56 C5.67 56 5.34 56 5 56 C4.99191315 55.3927861 4.98382629 54.7855722 4.97549438 54.15995789 C4.88954977 47.84966809 4.79005074 41.5396961 4.68261719 35.22973633 C4.64429398 32.87367076 4.60944706 30.517546 4.578125 28.16137695 C4.53254726 24.77794213 4.47454048 21.39491592 4.4140625 18.01171875 C4.40251129 16.95538742 4.39096008 15.89905609 4.37905884 14.81071472 C4.35918915 13.82992447 4.33931946 12.84913422 4.31884766 11.83862305 C4.30552399 10.97480515 4.29220032 10.11098724 4.2784729 9.22099304 C4.1321786 6.71415113 4.1321786 6.71415113 2 4 C1.67 5.65 1.34 7.3 1 9 C0.67 9 0.34 9 0 9 C0 6.03 0 3.06 0 0 Z " fill="#311D33" transform="translate(423,360)"/>
<path d="M0 0 C0 0.99 0 1.98 0 3 C-1.07636719 3.01417969 -2.15273438 3.02835937 -3.26171875 3.04296875 C-13.19366378 3.31793702 -20.91294559 4.71723175 -30 9 C-30 8.01 -30 7.02 -30 6 C-29.34 6 -28.68 6 -28 6 C-28 5.34 -28 4.68 -28 4 C-18.65172427 -0.52270791 -10.12136149 -0.4271618 0 0 Z " fill="#7A5D7B" transform="translate(324,359)"/>
<path d="M0 0 C0.80759766 -0.01224609 1.61519531 -0.02449219 2.44726562 -0.03710938 C7.81914918 -0.05009539 12.40171264 0.68844236 17.5625 2.1875 C14.08624095 3.17231082 12.105195 2.9120286 8.5625 2.1875 C5.78174515 2.119411 3.02885261 2.09271664 0.25 2.125 C-0.86084961 2.13176758 -0.86084961 2.13176758 -1.99414062 2.13867188 C-3.80862899 2.15037825 -5.62307534 2.16831102 -7.4375 2.1875 C-3.1475 2.5175 1.1425 2.8475 5.5625 3.1875 C5.5625 3.8475 5.5625 4.5075 5.5625 5.1875 C-0.7075 5.1875 -6.9775 5.1875 -13.4375 5.1875 C-13.4375 4.5275 -13.4375 3.8675 -13.4375 3.1875 C-16.4075 3.8475 -19.3775 4.5075 -22.4375 5.1875 C-21.4375 3.1875 -21.4375 3.1875 -19.3125 2.125 C-12.99999935 0.06657587 -6.57232328 0.00522027 0 0 Z " fill="#422E45" transform="translate(209.4375,358.8125)"/>
<path d="M0 0 C0.33 0.99 0.66 1.98 1 3 C-0.4375 5.6875 -0.4375 5.6875 -2 8 C1.68266103 7.40049704 5.34543185 6.75241109 9 6 C7.70539957 8.58920087 6.63879873 8.76633803 4 9.875 C1.48063832 10.94150295 -1.02061451 12.00979028 -3.4921875 13.18359375 C-4.27851563 13.55613281 -5.06484375 13.92867188 -5.875 14.3125 C-6.59429687 14.65925781 -7.31359375 15.00601562 -8.0546875 15.36328125 C-10 16 -10 16 -13 15 C-10.82575883 12.49962266 -9.26954202 11.56371414 -6 11 C-9.65456815 11.75241109 -13.31733897 12.40049704 -17 13 C-15 11 -15 11 -12.3125 9.6875 C-7.36886975 7.16904685 -3.10441272 4.65661907 0 0 Z " fill="#432F47" transform="translate(345,441)"/>
<path d="M0 0 C0.66 0 1.32 0 2 0 C1.38562191 3.9320198 0.13012368 7.38663986 -1.30859375 11.0703125 C-2.09909027 13.12435978 -2.09909027 13.12435978 -2.5625 15.875 C-3 18 -3 18 -5 20 C-5.33 19.01 -5.66 18.02 -6 17 C-7.65 19.64 -9.3 22.28 -11 25 C-12 23 -12 23 -11.51855469 21.22827148 C-10.60699941 18.95963435 -9.6897121 16.69465162 -8.75 14.4375 C-8.43675781 13.64408203 -8.12351562 12.85066406 -7.80078125 12.03320312 C-7.49011719 11.27845703 -7.17945313 10.52371094 -6.859375 9.74609375 C-6.57545898 9.05185303 -6.29154297 8.3576123 -5.99902344 7.64233398 C-5 6 -5 6 -2 5 C-0.78130071 2.49552484 -0.78130071 2.49552484 0 0 Z " fill="#6D526F" transform="translate(669,414)"/>
<path d="M0 0 C0.556875 0.721875 1.11375 1.44375 1.6875 2.1875 C3.9729976 5.07086423 3.9729976 5.07086423 6.75 7.6875 C9 10 9 10 9 12 C9.928125 12.268125 10.85625 12.53625 11.8125 12.8125 C14.88553313 13.95735548 15.87642013 14.68336741 18 17 C20.09989652 18.17574711 20.09989652 18.17574711 22 19 C14.87262743 19.25454902 8.32453722 18.68931338 2 15 C2.66 14.67 3.32 14.34 4 14 C4.99 14.33 5.98 14.66 7 15 C6.26798083 10.77467414 4.17835581 8.78465072 1.27734375 5.78125 C0 4 0 4 0 0 Z " fill="#6A4C69" transform="translate(442,439)"/>
<path d="M0 0 C1.34285801 4.02857402 0.19861924 5.67192204 -1.375 9.5625 C-1.83648437 10.71878906 -2.29796875 11.87507813 -2.7734375 13.06640625 C-3.46942608 14.73101588 -4.19311397 16.38622794 -5 18 C-4.01 18 -3.02 18 -2 18 C-2 18.66 -2 19.32 -2 20 C-1.01 20.33 -0.02 20.66 1 21 C-0.07218201 22.01194706 -1.15826378 23.00918057 -2.25 24 C-2.85328125 24.556875 -3.4565625 25.11375 -4.078125 25.6875 C-6 27 -6 27 -10 27 C-10 26.34 -10 25.68 -10 25 C-9.34 25 -8.68 25 -8 25 C-8.33 24.01 -8.66 23.02 -9 22 C-8.3984375 19.94140625 -8.3984375 19.94140625 -7.375 17.5625 C-7.00632813 16.68980469 -6.63765625 15.81710937 -6.2578125 14.91796875 C-5.84273437 13.95503906 -5.42765625 12.99210937 -5 12 C-4.08166349 9.79236055 -3.16498338 7.5840313 -2.25 5.375 C-1.50071462 3.58303436 -0.75097435 1.79125849 0 0 Z " fill="#604761" transform="translate(247,423)"/>
<path d="M0 0 C0.33 0 0.66 0 1 0 C1.01030746 0.67349991 1.02061493 1.34699982 1.03123474 2.04090881 C1.13960962 9.06536968 1.25418144 16.08971028 1.37231445 23.11401367 C1.41556416 25.73377968 1.45724609 28.35357207 1.49731445 30.97338867 C1.55525873 34.74405864 1.61888338 38.51459706 1.68359375 42.28515625 C1.70030624 43.45208511 1.71701874 44.61901398 1.73423767 45.82130432 C1.75418289 46.92191696 1.77412811 48.0225296 1.79467773 49.15649414 C1.81022202 50.11801895 1.8257663 51.07954376 1.84178162 52.07020569 C2.02147862 55.39772839 2.52873153 58.70112074 3 62 C-1.95 62 -6.9 62 -12 62 C-12 61.67 -12 61.34 -12 61 C-6.06 60.505 -6.06 60.505 0 60 C0 40.2 0 20.4 0 0 Z " fill="#190D1D" transform="translate(392,397)"/>
<path d="M0 0 C-2.63904371 1.41377341 -5.07120629 2.37240135 -8 3 C-8 3.66 -8 4.32 -8 5 C-8.66 5.66 -9.32 6.32 -10 7 C-9.33613281 6.71125 -8.67226563 6.4225 -7.98828125 6.125 C-6.66376953 5.568125 -6.66376953 5.568125 -5.3125 5 C-4.44238281 4.62875 -3.57226562 4.2575 -2.67578125 3.875 C0.0572002 2.98129512 2.14700934 2.83550324 5 3 C2.94384072 4.04685735 0.88827302 5.04880705 -1.2265625 5.97265625 C-8.28323982 9.17919203 -13.47931269 13.60852026 -19 19 C-19 18.01 -19 17.02 -19 16 C-17.33333333 14.33333333 -15.66666667 12.66666667 -14 11 C-13.13880866 8.82653432 -13.13880866 8.82653432 -13 7 C-13.99 6.34 -14.98 5.68 -16 5 C-14.27656245 4.15488176 -12.54595947 3.32436646 -10.8125 2.5 C-9.36810547 1.80390625 -9.36810547 1.80390625 -7.89453125 1.09375 C-5.01077307 0.00407079 -3.04645139 -0.22277524 0 0 Z " fill="#402E43" transform="translate(304,360)"/>
<path d="M0 0 C1.32 0 2.64 0 4 0 C3.43132304 6.06588759 -0.37108597 12.09247517 -5 16 C-7.6875 16.1875 -7.6875 16.1875 -10 16 C-8.60202204 12.69568847 -6.57181538 10.29556695 -4.2421875 7.59375 C-2.41947117 5.25517056 -1.21725155 2.69076658 0 0 Z " fill="#644F64" transform="translate(495,438)"/>
<path d="M0 0 C1 2 1 2 0.0625 5 C-0.288125 5.99 -0.63875 6.98 -1 8 C-1 8.66 -1 9.32 -1 10 C0.32 8.02 1.64 6.04 3 4 C4 7 4 7 3.00390625 9.26171875 C2.52824219 10.06222656 2.05257812 10.86273438 1.5625 11.6875 C1.08941406 12.49574219 0.61632812 13.30398438 0.12890625 14.13671875 C-0.42990234 15.05904297 -0.42990234 15.05904297 -1 16 C-1.33 15.01 -1.66 14.02 -2 13 C-5.76550427 15.51033618 -6.08606734 17.34610454 -7.5625 21.5625 C-9.78870432 27.89435216 -9.78870432 27.89435216 -12 29 C-10.35100674 22.16354879 -7.73018897 15.84016002 -4.875 9.4375 C-4.33359375 8.22247803 -4.33359375 8.22247803 -3.78125 6.98291016 C-1.141524 1.141524 -1.141524 1.141524 0 0 Z " fill="#38273A" transform="translate(682,380)"/>
<path d="M0 0 C0 0.66 0 1.32 0 2 C0.66 2.33 1.32 2.66 2 3 C-2.66666667 5.33333333 -7.33333333 7.66666667 -12 10 C-12.33 8.35 -12.66 6.7 -13 5 C-13.99 5 -14.98 5 -16 5 C-11.45755844 0.83609524 -5.97762888 0 0 0 Z " fill="#604B62" transform="translate(196,362)"/>
<path d="M0 0 C0.99 0.495 0.99 0.495 2 1 C2.33 1.99 2.66 2.98 3 4 C4.77988824 4.97084813 6.56061768 5.94032775 8.3515625 6.890625 C10.71868277 8.48366329 11.22486649 10.32226606 12 13 C12.66 13.66 13.32 14.32 14 15 C13.2575 14.835 12.515 14.67 11.75 14.5 C8.80993422 13.88074304 8.80993422 13.88074304 5 14 C2.75 12.625 2.75 12.625 1 11 C1 10.34 1 9.68 1 9 C1.99 9 2.98 9 4 9 C4 8.34 4 7.68 4 7 C3.01 6.67 2.02 6.34 1 6 C0.67 4.02 0.34 2.04 0 0 Z " fill="#402E42" transform="translate(209,393)"/>
<path d="M0 0 C0.70253906 0.00515625 1.40507812 0.0103125 2.12890625 0.015625 C3.20011719 0.01755859 3.20011719 0.01755859 4.29296875 0.01953125 C10.4061358 0.1292829 15.92184849 1.27455359 21.69140625 3.328125 C21.36140625 4.318125 21.03140625 5.308125 20.69140625 6.328125 C17.76330604 5.85145752 14.84812172 5.36018044 11.94140625 4.765625 C9.74622447 4.26450178 9.74622447 4.26450178 7.69140625 4.328125 C7.69140625 3.668125 7.69140625 3.008125 7.69140625 2.328125 C2.74140625 2.328125 -2.20859375 2.328125 -7.30859375 2.328125 C-4.84264845 -0.1378203 -3.37380377 0.04612622 0 0 Z " fill="#836685" transform="translate(207.30859375,359.671875)"/>
<path d="M0 0 C0.99 0.33 1.98 0.66 3 1 C5.63804589 0.60602665 5.63804589 0.60602665 8 0 C7.67 0.66 7.34 1.32 7 2 C6.34 2 5.68 2 5 2 C4.79375 2.928125 4.5875 3.85625 4.375 4.8125 C2.63553131 8.8449047 0.9011001 9.25695527 -3 11 C-3.33 11.99 -3.66 12.98 -4 14 C-4.99 13.67 -5.98 13.34 -7 13 C-6.34 13 -5.68 13 -5 13 C-4.96132812 11.96939453 -4.96132812 11.96939453 -4.921875 10.91796875 C-4.86515625 10.01691406 -4.8084375 9.11585938 -4.75 8.1875 C-4.70359375 7.29417969 -4.6571875 6.40085937 -4.609375 5.48046875 C-4 3 -4 3 -2.140625 1.11328125 C-1.43421875 0.74589844 -0.7278125 0.37851562 0 0 Z " fill="#412943" transform="translate(215,411)"/>
<path d="M0 0 C0.66 0 1.32 0 2 0 C1.38029501 9.80843419 1.38029501 9.80843419 -2 14 C-2.66 14 -3.32 14 -4 14 C-4.66 15.32 -5.32 16.64 -6 18 C-7.33855096 13.98434713 -6.23071006 12.32812817 -4.6875 8.4375 C-4.23761719 7.28121094 -3.78773438 6.12492187 -3.32421875 4.93359375 C-2 2 -2 2 0 0 Z " fill="#675165" transform="translate(678,393)"/>
<path d="M0 0 C1.75 0.125 1.75 0.125 4 1 C6.25 4.0625 6.25 4.0625 8 7 C7.67 7.66 7.34 8.32 7 9 C3.46400002 8.92928 0.8958137 8.80836985 -1.80078125 6.375 C-3.27675028 4.62779084 -4.67266996 2.86215167 -6 1 C-3.03 1.495 -3.03 1.495 0 2 C0 1.34 0 0.68 0 0 Z " fill="#715472" transform="translate(442,445)"/>
<path d="M0 0 C3.24642879 2.96413064 3.93595684 5.05615081 4.23828125 9.51171875 C4.63823901 24.46619323 4.63823901 24.46619323 0 30 C-2.20993959 32.18627857 -4.50387334 34.14893978 -7 36 C-7.66 35.67 -8.32 35.34 -9 35 C-8.278125 34.505 -7.55625 34.01 -6.8125 33.5 C-2.07860896 29.29209685 1.77170011 23.72712848 2.16796875 17.2578125 C2.17441406 16.22398437 2.18085937 15.19015625 2.1875 14.125 C2.20876953 12.58199219 2.20876953 12.58199219 2.23046875 11.0078125 C1.99449134 7.92810729 1.20731817 5.81548507 0 3 C0 2.01 0 1.02 0 0 Z " fill="#2A192E" transform="translate(563,375)"/>
<path d="M0 0 C0.33 0 0.66 0 1 0 C1.33 13.53 1.66 27.06 2 41 C-3 42 -3 42 -6 40 C-5.67 39.34 -5.34 38.68 -5 38 C-4.01 38.33 -3.02 38.66 -2 39 C0.08204358 36.91795642 -0.74178708 32.4661444 -0.68359375 29.58984375 C-0.66281265 28.74780899 -0.64203156 27.90577423 -0.62062073 27.03822327 C-0.55503188 24.33806821 -0.49619724 21.63781283 -0.4375 18.9375 C-0.39432363 17.11131759 -0.35070964 15.28514546 -0.30664062 13.45898438 C-0.19934106 8.97276008 -0.09810034 4.4864345 0 0 Z " fill="#664F67" transform="translate(581,413)"/>
<path d="M0 0 C0 0.99 0 1.98 0 3 C-9.9 3 -19.8 3 -30 3 C-30 2.67 -30 2.34 -30 2 C-26.50056733 1.66052975 -23.00037948 1.32955227 -19.5 1 C-18.51773438 0.90460938 -17.53546875 0.80921875 -16.5234375 0.7109375 C-10.98601633 0.19411152 -5.56118702 -0.10592737 0 0 Z " fill="#846582" transform="translate(549,360)"/>
<path d="M0 0 C0.33 0.66 0.66 1.32 1 2 C-0.68474722 5.36949443 -1.8191658 6.87944386 -5 9 C-5 8.34 -5 7.68 -5 7 C-5.66 7 -6.32 7 -7 7 C-7.33 6.34 -7.66 5.68 -8 5 C-8.99 5 -9.98 5 -11 5 C-4.85714286 -0.71428571 -4.85714286 -0.71428571 0 0 Z " fill="#624768" transform="translate(291,366)"/>
<path d="M0 0 C0.66 1.32 1.32 2.64 2 4 C2.66 3.34 3.32 2.68 4 2 C5.25664978 4.90600261 6 6.79604584 6 10 C3.36 10 0.72 10 -2 10 C-1.125 2.25 -1.125 2.25 0 0 Z " fill="#634C61" transform="translate(82,449)"/>
<path d="M0 0 C1 2 1 2 0.25 5.4375 C-1.40856031 10.16439689 -1.40856031 10.16439689 -4 12 C-4.66 12 -5.32 12 -6 12 C-6.3675 5.5075 -6.3675 5.5075 -4.6875 3.1875 C-3.14223264 2.10008964 -1.57218154 1.04812103 0 0 Z M-4 7 C-3.67 7.66 -3.34 8.32 -3 9 C-2.67 8.34 -2.34 7.68 -2 7 C-2.66 7 -3.32 7 -4 7 Z " fill="#442F44" transform="translate(207,396)"/>
<path d="M0 0 C2.31 0 4.62 0 7 0 C7 5.36363636 7 5.36363636 6 8 C5.01 8.33 4.02 8.66 3 9 C2.67 7.02 2.34 5.04 2 3 C1.34 3 0.68 3 0 3 C0 2.01 0 1.02 0 0 Z " fill="#7B6077" transform="translate(647,360)"/>
<path d="M0 0 C1.32 0.66 2.64 1.32 4 2 C3.34 2 2.68 2 2 2 C2 2.66 2 3.32 2 4 C9.26 4.66 16.52 5.32 24 6 C24 6.33 24 6.66 24 7 C3.62032086 7.44518717 3.62032086 7.44518717 -4 3 C-2.68 2.34 -1.36 1.68 0 1 C0 0.67 0 0.34 0 0 Z " fill="#412F44" transform="translate(192,453)"/>
<path d="M0 0 C11.88 0 23.76 0 36 0 C36 0.33 36 0.66 36 1 C24.78 1 13.56 1 2 1 C2 1.66 2 2.32 2 3 C1.01 2.67 0.02 2.34 -1 2 C-0.67 1.34 -0.34 0.68 0 0 Z " fill="#6A556D" transform="translate(505,360)"/>
<path d="M0 0 C0 1.32 0 2.64 0 4 C-3.28519475 5.09506492 -5.73663415 5.09960608 -9.1875 5.0625 C-10.81751953 5.04896484 -10.81751953 5.04896484 -12.48046875 5.03515625 C-13.31191406 5.02355469 -14.14335937 5.01195312 -15 5 C-12.56158876 2.56158876 -10.81433885 2.23847249 -7.5 1.375 C-6.5203125 1.11460937 -5.540625 0.85421875 -4.53125 0.5859375 C-2 0 -2 0 0 0 Z " fill="#715976" transform="translate(483,454)"/>
<path d="M0 0 C1.5 1.375 1.5 1.375 3 3 C3 3.66 3 4.32 3 5 C5.31 5.33 7.62 5.66 10 6 C9.79375 5.38125 9.5875 4.7625 9.375 4.125 C9.25125 3.42375 9.1275 2.7225 9 2 C9.66 1.34 10.32 0.68 11 0 C11.38133299 1.9914056 11.71325582 3.99279077 12 6 C11 7 11 7 8.27734375 7.09765625 C6.62412109 7.08025391 6.62412109 7.08025391 4.9375 7.0625 C3.83277344 7.05347656 2.72804688 7.04445313 1.58984375 7.03515625 C0.30787109 7.01775391 0.30787109 7.01775391 -1 7 C-1.04254356 5.00045254 -1.04080783 2.99958364 -1 1 C-0.67 0.67 -0.34 0.34 0 0 Z " fill="#6D546E" transform="translate(381,451)"/>
<path d="M0 0 C2.10353495 -0.0810206 4.20795952 -0.13919907 6.3125 -0.1875 C7.48425781 -0.22230469 8.65601562 -0.25710938 9.86328125 -0.29296875 C13 0 13 0 14.91796875 1.51171875 C15.27503906 2.00285156 15.63210937 2.49398438 16 3 C15.67 3.66 15.34 4.32 15 5 C14.649375 4.525625 14.29875 4.05125 13.9375 3.5625 C11.15836457 1.32126175 8.4855283 1.32882342 5 1 C5 2.98 5 4.96 5 7 C2.5 5.1875 2.5 5.1875 0 3 C0 2.01 0 1.02 0 0 Z " fill="#5C495F" transform="translate(76,360)"/>
<path d="M0 0 C0 0.33 0 0.66 0 1 C-1.65 1 -3.3 1 -5 1 C-5.33 1.99 -5.66 2.98 -6 4 C-9.3 4.66 -12.6 5.32 -16 6 C-16 5.34 -16 4.68 -16 4 C-14.08959948 3.1319092 -12.17139263 2.28098217 -10.25 1.4375 C-9.18265625 0.96183594 -8.1153125 0.48617188 -7.015625 -0.00390625 C-4.01630163 -0.9946154 -2.86578759 -1.16161779 0 0 Z " fill="#7B627E" transform="translate(340,452)"/>
<path d="M0 0 C2.7084017 -0.02714434 5.41652721 -0.04690846 8.125 -0.0625 C8.88554687 -0.07087891 9.64609375 -0.07925781 10.4296875 -0.08789062 C14.7389644 -0.10646509 18.75516474 0.13882735 23 1 C23 1.99 23 2.98 23 4 C16.47745665 4.25086705 16.47745665 4.25086705 14.15625 3.03125 C11.3347372 1.68183084 8.86050608 1.57785909 5.75 1.375 C4.67234375 1.30023438 3.5946875 1.22546875 2.484375 1.1484375 C1.25460937 1.07496094 1.25460937 1.07496094 0 1 C0 0.67 0 0.34 0 0 Z " fill="#735A72" transform="translate(351,360)"/>
<path d="M0 0 C2.81403301 0.28050806 5.62567253 0.57381304 8.4375 0.875 C9.23994141 0.95363281 10.04238281 1.03226562 10.86914062 1.11328125 C12.92170994 1.33845763 14.96293009 1.66222587 17 2 C17.33 2.66 17.66 3.32 18 4 C11.59646678 4.2361959 6.15370839 3.823321 0 2 C0 1.34 0 0.68 0 0 Z " fill="#826686" transform="translate(194,455)"/>
<path d="M0 0 C2.31 0 4.62 0 7 0 C7 1.32 7 2.64 7 4 C6.34 4 5.68 4 5 4 C4.67 5.32 4.34 6.64 4 8 C3.67 7.34 3.34 6.68 3 6 C2.01 6.495 2.01 6.495 1 7 C0.67 4.69 0.34 2.38 0 0 Z " fill="#715E74" transform="translate(150,360)"/>
<path d="M0 0 C1.39211215 4.17633644 -0.0464421 5.78960515 -1.9375 9.6875 C-2.50339844 10.86699219 -3.06929687 12.04648437 -3.65234375 13.26171875 C-4.09707031 14.16535156 -4.54179688 15.06898438 -5 16 C-6.32 16 -7.64 16 -9 16 C-9.33 15.01 -9.66 14.02 -10 13 C-9.40703125 12.96003906 -8.8140625 12.92007812 -8.203125 12.87890625 C-4.82146279 11.52983888 -4.2452408 9.16586083 -2.75 5.9375 C-1.96882812 4.28041016 -1.96882812 4.28041016 -1.171875 2.58984375 C-0.78515625 1.73519531 -0.3984375 0.88054687 0 0 Z " fill="#412943" transform="translate(659,443)"/>
<path d="M0 0 C0.33 0.99 0.66 1.98 1 3 C2.32 2.34 3.64 1.68 5 1 C4.25 5.75 4.25 5.75 2 8 C1.67 7.01 1.34 6.02 1 5 C-0.65 7.64 -2.3 10.28 -4 13 C-4.33 12.34 -4.66 11.68 -5 11 C-4.00390625 8.3984375 -4.00390625 8.3984375 -2.5625 5.375 C-2.08941406 4.37210937 -1.61632812 3.36921875 -1.12890625 2.3359375 C-0.75636719 1.56507813 -0.38382813 0.79421875 0 0 Z " fill="#442D48" transform="translate(662,426)"/>
<path d="M0 0 C4.87072783 4.56630734 8.89156398 9.74976539 13 15 C12.67 15.66 12.34 16.32 12 17 C10.62437146 15.71034824 9.29233607 14.37310707 8 13 C8 12.34 8 11.68 8 11 C7.34 11 6.68 11 6 11 C4.4921875 9.35546875 4.4921875 9.35546875 2.875 7.1875 C2.06675781 6.12595703 2.06675781 6.12595703 1.2421875 5.04296875 C0 3 0 3 0 0 Z " fill="#251527" transform="translate(88,376)"/>
<path d="M0 0 C1 2 1 2 0.44140625 4.1640625 C-0.37239583 6.44270833 -1.18619792 8.72135417 -2 11 C1.3 11 4.6 11 8 11 C8 11.33 8 11.66 8 12 C3.71 12 -0.58 12 -5 12 C-2.25 3.375 -2.25 3.375 0 0 Z " fill="#27132A" transform="translate(673,412)"/>
<path d="M0 0 C0.86625 0.3403125 0.86625 0.3403125 1.75 0.6875 C1.09 0.6875 0.43 0.6875 -0.25 0.6875 C-0.25 1.3475 -0.25 2.0075 -0.25 2.6875 C0.74 3.0175 1.73 3.3475 2.75 3.6875 C1.43 5.0075 0.11 6.3275 -1.25 7.6875 C-1.91 6.6975 -2.57 5.7075 -3.25 4.6875 C-4.30270463 3.52938612 -4.30270463 3.52938612 -6.25 2.6875 C-2.80384615 -0.38942308 -2.80384615 -0.38942308 0 0 Z " fill="#614364" transform="translate(186.25,364.3125)"/>
<path d="M0 0 C0 0.99 0 1.98 0 3 C-0.99 3.495 -0.99 3.495 -2 4 C-2.65213292 6.02463255 -2.65213292 6.02463255 -3 8 C-4.65 8 -6.3 8 -8 8 C-6.48291727 4.46014029 -4.24676932 0 0 0 Z " fill="#725D73" transform="translate(493,446)"/>
<path d="M0 0 C0.33 0 0.66 0 1 0 C0.91266424 1.60517097 0.80447776 3.20921662 0.6875 4.8125 C0.62949219 5.70582031 0.57148437 6.59914063 0.51171875 7.51953125 C-0.06313581 10.30604 -0.8206856 11.24135754 -3 13 C-2.67 11.02 -2.34 9.04 -2 7 C-2.66 6.67 -3.32 6.34 -4 6 C-2.69593116 3.98079663 -1.36176581 1.98075027 0 0 Z " fill="#5E4862" transform="translate(663,430)"/>
<path d="M0 0 C1.74787823 3.27430582 2.99252882 6.61342405 4.1875 10.125 C4.55230469 11.17945313 4.91710937 12.23390625 5.29296875 13.3203125 C6 16 6 16 5 18 C1.21459223 11.52817381 -0.12324174 7.51774641 0 0 Z " fill="#302033" transform="translate(169,416)"/>
<path d="M0 0 C2.31 0 4.62 0 7 0 C6.67 3.63 6.34 7.26 6 11 C5.67 11 5.34 11 5 11 C5 8.03 5 5.06 5 2 C3.68 2 2.36 2 1 2 C1 2.66 1 3.32 1 4 C0.34 4 -0.32 4 -1 4 C-0.67 2.68 -0.34 1.36 0 0 Z " fill="#5A4458" transform="translate(496,360)"/>
<path d="M0 0 C5.61 0 11.22 0 17 0 C16 6 16 6 14 9 C14 6.69 14 4.38 14 2 C9.38 2 4.76 2 0 2 C0 1.34 0 0.68 0 0 Z " fill="#5A475C" transform="translate(425,360)"/>
<path d="M0 0 C-1.32 0.33 -2.64 0.66 -4 1 C-4 1.66 -4 2.32 -4 3 C-1.36 2.67 1.28 2.34 4 2 C2 4 2 4 -0.3828125 4.1953125 C-1.28773438 4.17210937 -2.19265625 4.14890625 -3.125 4.125 C-4.49011719 4.09792969 -4.49011719 4.09792969 -5.8828125 4.0703125 C-6.58148438 4.04710937 -7.28015625 4.02390625 -8 4 C-7.67 2.68 -7.34 1.36 -7 0 C-3.98968256 -0.93423645 -3.13349732 -1.04449911 0 0 Z " fill="#533957" transform="translate(328,455)"/>
<path d="M0 0 C2.64 0.66 5.28 1.32 8 2 C8 2.99 8 3.98 8 5 C6.865625 5.12375 5.73125 5.2475 4.5625 5.375 C2.7990625 5.684375 2.7990625 5.684375 1 6 C0.67 6.66 0.34 7.32 0 8 C0 5.36 0 2.72 0 0 Z " fill="#705578" transform="translate(217,406)"/>
<path d="M0 0 C0.99 0.33 1.98 0.66 3 1 C3 1.66 3 2.32 3 3 C3.99 3 4.98 3 6 3 C6 3.99 6 4.98 6 6 C4.35 6 2.7 6 1 6 C1 6.66 1 7.32 1 8 C0.34 8 -0.32 8 -1 8 C-0.67 5.36 -0.34 2.72 0 0 Z M2 3 C3 5 3 5 3 5 Z " fill="#42294B" transform="translate(201,411)"/>
<path d="M0 0 C2 2 2 2 2.5 4.0625 C2.665 4.701875 2.83 5.34125 3 6 C3.66 6.33 4.32 6.66 5 7 C5 7.66 5 8.32 5 9 C3.02 9.33 1.04 9.66 -1 10 C-1 9.34 -1 8.68 -1 8 C-1.66 7.67 -2.32 7.34 -3 7 C-2.34 7 -1.68 7 -1 7 C-0.67 4.69 -0.34 2.38 0 0 Z " fill="#766176" transform="translate(208,393)"/>
<path d="M0 0 C0.33 0.66 0.66 1.32 1 2 C1.99 2 2.98 2 4 2 C4 3.65 4 5.3 4 7 C0.00499382 5.6302836 -2.80009492 3.74277578 -6 1 C-3.03 1.495 -3.03 1.495 0 2 C0 1.34 0 0.68 0 0 Z " fill="#5E3F5B" transform="translate(182,448)"/>
<path d="M0 0 C-2.31 0.66 -4.62 1.32 -7 2 C-6.505 2.61875 -6.01 3.2375 -5.5 3.875 C-4 6 -4 6 -4 8 C-4.66 8 -5.32 8 -6 8 C-7.2890625 6.25 -7.2890625 6.25 -8.625 4 C-9.07101562 3.2575 -9.51703125 2.515 -9.9765625 1.75 C-10.31429687 1.1725 -10.65203125 0.595 -11 0 C-3.57142857 -1.28571429 -3.57142857 -1.28571429 0 0 Z " fill="#2C1B33" transform="translate(559,416)"/>
<path d="M0 0 C0 3.79330832 -1.17710681 5.01684801 -3.375 8.0625 C-4.00148437 8.94035156 -4.62796875 9.81820313 -5.2734375 10.72265625 C-7 13 -7 13 -9 15 C-8.24901668 8.61664177 -4.59403362 4.26588836 0 0 Z " fill="#25172A" transform="translate(183,372)"/>
<path d="M0 0 C0.93065133 2.60582371 1.14917407 3.64198224 0.0625 6.25 C-0.4634375 7.11625 -0.4634375 7.11625 -1 8 C-1.66 7.34 -2.32 6.68 -3 6 C-2.67 5.34 -2.34 4.68 -2 4 C-2.66 3.67 -3.32 3.34 -4 3 C-4 3.66 -4 4.32 -4 5 C-5.32 5.33 -6.64 5.66 -8 6 C-7.67 5.01 -7.34 4.02 -7 3 C-3.4375 1.3125 -3.4375 1.3125 0 0 Z " fill="#725576" transform="translate(183,366)"/>
<path d="M0 0 C0.99 0 1.98 0 3 0 C5.09230769 4.43076923 5.09230769 4.43076923 4.625 7.3125 C4.41875 7.869375 4.2125 8.42625 4 9 C2.515 6.03 2.515 6.03 1 3 C0.01 4.485 0.01 4.485 -1 6 C-1.66 5.67 -2.32 5.34 -3 5 C-1.6875 2.5 -1.6875 2.5 0 0 Z " fill="#372439" transform="translate(349,435)"/>
<path d="M0 0 C3.25516428 3.16474305 6.32008793 6.32752791 9 10 C9 10.66 9 11.32 9 12 C7.68 12 6.36 12 5 12 C4.731875 11.0925 4.46375 10.185 4.1875 9.25 C3.09683752 6.26502899 1.93197145 4.45887276 0 2 C0 1.34 0 0.68 0 0 Z " fill="#4A3552" transform="translate(596,372)"/>
<path d="M0 0 C1.98 0.66 3.96 1.32 6 2 C4.68 2.33 3.36 2.66 2 3 C2.99 4.65 3.98 6.3 5 8 C2.64828869 7.40138258 0.3140622 6.73075648 -2 6 C-2.33 5.34 -2.66 4.68 -3 4 C-1.68 4 -0.36 4 1 4 C0.67 2.68 0.34 1.36 0 0 Z " fill="#3F2C43" transform="translate(331,361)"/>
<path d="M0 0 C1.1875 1.625 1.1875 1.625 2 4 C0.8125 7.1875 0.8125 7.1875 -1 10 C-1.99 10.33 -2.98 10.66 -4 11 C-3.52269162 9.5410574 -3.04308958 8.08286504 -2.5625 6.625 C-2.29566406 5.81289063 -2.02882813 5.00078125 -1.75390625 4.1640625 C-1 2 -1 2 0 0 Z " fill="#544159" transform="translate(689,363)"/>
<path d="M0 0 C0.66 0 1.32 0 2 0 C1.25 5.75 1.25 5.75 -1 8 C-1.66 7.34 -2.32 6.68 -3 6 C-1.125 1.125 -1.125 1.125 0 0 Z " fill="#836484" transform="translate(659,437)"/>
<path d="M0 0 C1 2 1 2 0.3125 4.875 C-1.03712351 8.08838932 -2.39272995 9.74036595 -5 12 C-4.54738642 10.56068883 -4.08767021 9.12361001 -3.625 7.6875 C-3.24214844 6.48673828 -3.24214844 6.48673828 -2.8515625 5.26171875 C-2 3 -2 3 0 0 Z " fill="#3D2939" transform="translate(682,380)"/>
<path d="M0 0 C0.66 0 1.32 0 2 0 C2 1.32 2 2.64 2 4 C-2.95 4 -7.9 4 -13 4 C-13 3.67 -13 3.34 -13 3 C-12.14535156 2.95101563 -11.29070312 2.90203125 -10.41015625 2.8515625 C-9.30542969 2.77679688 -8.20070313 2.70203125 -7.0625 2.625 C-5.40927734 2.52058594 -5.40927734 2.52058594 -3.72265625 2.4140625 C-2.37494141 2.20910156 -2.37494141 2.20910156 -1 2 C-0.67 1.34 -0.34 0.68 0 0 Z " fill="#412C44" transform="translate(393,455)"/>
<path d="M0 0 C0.99 0.33 1.98 0.66 3 1 C2 4 2 4 0.125 5.25 C-2 6 -2 6 -5 5 C-4.34 5 -3.68 5 -3 5 C-3 4.01 -3 3.02 -3 2 C-2.01 1.34 -1.02 0.68 0 0 Z " fill="#856586" transform="translate(230,450)"/>
<path d="M0 0 C0.556875 0.721875 1.11375 1.44375 1.6875 2.1875 C3.9729976 5.07086423 3.9729976 5.07086423 6.75 7.6875 C9 10 9 10 9 12 C4.7835599 10.43835552 2.58130177 7.58514135 0 4 C0 2.68 0 1.36 0 0 Z " fill="#25162A" transform="translate(442,439)"/>
<path d="M0 0 C1.98 0.495 1.98 0.495 4 1 C3.34 2.65 2.68 4.3 2 6 C1.01 6 0.02 6 -1 6 C-0.67 4.02 -0.34 2.04 0 0 Z " fill="#846784" transform="translate(288,366)"/>
<path d="M0 0 C3.375 0.25 3.375 0.25 7 1 C8.4375 3.0625 8.4375 3.0625 9 5 C2.25 3.375 2.25 3.375 0 0 Z " fill="#4C354D" transform="translate(286,451)"/>
<path d="M0 0 C0.33 1.32 0.66 2.64 1 4 C-1.3125 4.625 -1.3125 4.625 -4 5 C-4.99 4.34 -5.98 3.68 -7 3 C-6.67 2.34 -6.34 1.68 -6 1 C-5.01 1.33 -4.02 1.66 -3 2 C-2.01 1.34 -1.02 0.68 0 0 Z " fill="#523956" transform="translate(582,450)"/>
<path d="M0 0 C1.32 0.33 2.64 0.66 4 1 C4.33 3.64 4.66 6.28 5 9 C4.01 8.67 3.02 8.34 2 8 C0.5522078 5.10441559 0 3.25811062 0 0 Z " fill="#543F55" transform="translate(701,403)"/>
<path d="M0 0 C4.43090471 1.20842856 6.98112756 2.51668565 10 6 C6.6875 5.8125 6.6875 5.8125 3 5 C1.0625 2.4375 1.0625 2.4375 0 0 Z " fill="#341F36" transform="translate(342,366)"/>
<path d="M0 0 C1.32 0.66 2.64 1.32 4 2 C4 3.32 4 4.64 4 6 C2.68 5.67 1.36 5.34 0 5 C-0.5625 3.0625 -0.5625 3.0625 -1 1 C-0.67 0.67 -0.34 0.34 0 0 Z " fill="#8C6989" transform="translate(341,367)"/>
<path d="M0 0 C0.77321882 2.98241547 1.41196203 5.97580475 2 9 C1.01 9.495 1.01 9.495 0 10 C-1.125 8.375 -1.125 8.375 -2 6 C-1.125 2.75 -1.125 2.75 0 0 Z " fill="#634664" transform="translate(656,439)"/>
<path d="M0 0 C0 1.98 0 3.96 0 6 C-1.65 6 -3.3 6 -5 6 C-5 5.01 -5 4.02 -5 3 C-1.55555556 0 -1.55555556 0 0 0 Z " fill="#311C39" transform="translate(216,411)"/>
<path d="M0 0 C0.66 0 1.32 0 2 0 C1.25 6.75 1.25 6.75 -1 9 C-2.25541557 5.23375329 -1.37061958 3.62811066 0 0 Z " fill="#7E6782" transform="translate(673,402)"/>
<path d="M0 0 C5.78461538 4.43076923 5.78461538 4.43076923 6.875 7.3125 C6.936875 8.1478125 6.936875 8.1478125 7 9 C5.1875 8.875 5.1875 8.875 3 8 C0 2.96428571 0 2.96428571 0 0 Z " fill="#38263E" transform="translate(113,391)"/>
<path d="M0 0 C1.65 0.33 3.3 0.66 5 1 C4.67 1.66 4.34 2.32 4 3 C1.93359375 3.4140625 1.93359375 3.4140625 -0.5625 3.625 C-1.38878906 3.69976562 -2.21507812 3.77453125 -3.06640625 3.8515625 C-4.02353516 3.92503906 -4.02353516 3.92503906 -5 4 C-4.0409375 3.8453125 -4.0409375 3.8453125 -3.0625 3.6875 C-2.381875 3.460625 -1.70125 3.23375 -1 3 C-0.67 2.01 -0.34 1.02 0 0 Z " fill="#4D3650" transform="translate(223,455)"/>
<path d="M0 0 C0.33 0 0.66 0 1 0 C1 2.31 1 4.62 1 7 C1.66 7 2.32 7 3 7 C3 8.98 3 10.96 3 13 C0.95204577 11.0373772 0.05023362 9.5722693 -0.19921875 6.73046875 C-0.18858877 4.48045617 -0.12958525 2.24614438 0 0 Z " fill="#4F2F51" transform="translate(264,416)"/>
<path d="M0 0 C0.66 0 1.32 0 2 0 C2 0.66 2 1.32 2 2 C2.99 2 3.98 2 5 2 C5 3.98 5 5.96 5 8 C2.21611025 6.29374499 1.14615794 5.52373261 0.25 2.3125 C0.1675 1.549375 0.085 0.78625 0 0 Z " fill="#5A3E5E" transform="translate(123,419)"/>
<path d="M0 0 C1.98 0 3.96 0 6 0 C6 1.65 6 3.3 6 5 C4 4 2 3 0 2 C0 1.34 0 0.68 0 0 Z " fill="#301B36" transform="translate(210,402)"/>
<path d="M0 0 C0.66 0 1.32 0 2 0 C2 1.65 2 3.3 2 5 C0.68 5.33 -0.64 5.66 -2 6 C-1.125 1.125 -1.125 1.125 0 0 Z " fill="#7C6479" transform="translate(678,393)"/>
<path d="M0 0 C2.31 0 4.62 0 7 0 C7 0.99 7 1.98 7 3 C4.69 2.67 2.38 2.34 0 2 C0 1.34 0 0.68 0 0 Z " fill="#7D5F80" transform="translate(325,362)"/>
<path d="M0 0 C0 0.33 0 0.66 0 1 C-1.65 1 -3.3 1 -5 1 C-5.33 1.99 -5.66 2.98 -6 4 C-6.99 3.67 -7.98 3.34 -9 3 C-5.83583464 -0.30799106 -4.50236011 -1.35070803 0 0 Z " fill="#846686" transform="translate(340,452)"/>
<path d="M0 0 C0.99 0.66 1.98 1.32 3 2 C-0.75 7.875 -0.75 7.875 -3 9 C-2.01 6.03 -1.02 3.06 0 0 Z " fill="#886D84" transform="translate(682,383)"/>
<path d="M0 0 C1 4 1 4 0 6 C0.66 6 1.32 6 2 6 C2 6.99 2 7.98 2 9 C0.68 8.67 -0.64 8.34 -2 8 C-1.34 5.36 -0.68 2.72 0 0 Z " fill="#6B536F" transform="translate(684,375)"/>
<path d="M0 0 C2.96404505 2.80804268 5.44499019 5.18315774 7 9 C5 7.625 5 7.625 3 6 C3 5.34 3 4.68 3 4 C2.01 3.67 1.02 3.34 0 3 C0 2.01 0 1.02 0 0 Z " fill="#2B1E2D" transform="translate(540,419)"/>
<path d="M0 0 C0.66 0 1.32 0 2 0 C1.25 4.75 1.25 4.75 -1 7 C-1.625 5.1875 -1.625 5.1875 -2 3 C-1.34 2.01 -0.68 1.02 0 0 Z " fill="#846685" transform="translate(669,414)"/>
<path d="M0 0 C2.97 0.495 2.97 0.495 6 1 C5.67 1.66 5.34 2.32 5 3 C2.36 3 -0.28 3 -3 3 C-2.01 2.67 -1.02 2.34 0 2 C0 1.34 0 0.68 0 0 Z " fill="#8A6A8D" transform="translate(550,413)"/>
<path d="M0 0 C0.99 0.33 1.98 0.66 3 1 C3 1.66 3 2.32 3 3 C1.125 4.0625 1.125 4.0625 -1 5 C-1.66 4.67 -2.32 4.34 -3 4 C-3 3.34 -3 2.68 -3 2 C-2.01 1.34 -1.02 0.68 0 0 Z " fill="#856784" transform="translate(189,363)"/>
</svg>
