<svg width="131" height="20" viewBox="0 0 131 20" fill="none" xmlns="http://www.w3.org/2000/svg">
<g clip-path="url(#clip0_2147_19536)">
<path fill-rule="evenodd" clip-rule="evenodd" d="M104.137 20C109.66 20 114.137 15.5228 114.137 10C114.137 4.47715 109.66 0 104.137 0C98.6139 0 94.1367 4.47715 94.1367 10C94.1367 15.5228 98.6139 20 104.137 20ZM104 14.9751C106.761 14.9751 109 12.7365 109 9.9751C109 7.21367 106.761 4.9751 104 4.9751C101.239 4.9751 99 7.21367 99 9.9751C99 12.7365 101.239 14.9751 104 14.9751Z" fill="#FF62D5"/>
<path d="M118.016 18.9999V1.54541H123.913C125.283 1.54541 126.402 1.79257 127.271 2.28689C128.146 2.77552 128.794 3.43745 129.214 4.27268C129.635 5.10791 129.845 6.03973 129.845 7.06814C129.845 8.09655 129.635 9.0312 129.214 9.87211C128.8 10.713 128.158 11.3835 127.288 11.8835C126.419 12.3778 125.305 12.6249 123.947 12.6249H119.72V10.7499H123.879C124.817 10.7499 125.57 10.588 126.138 10.2641C126.706 9.94029 127.118 9.50279 127.374 8.95166C127.635 8.39484 127.766 7.767 127.766 7.06814C127.766 6.36927 127.635 5.74427 127.374 5.19314C127.118 4.642 126.703 4.21018 126.129 3.89768C125.555 3.5795 124.794 3.42041 123.845 3.42041H120.129V18.9999H118.016Z" fill="black"/>
<path d="M76 18.9999V1.54541H78.1136V9.31814H87.4204V1.54541H89.5341V18.9999H87.4204V11.1931H78.1136V18.9999H76Z" fill="black"/>
<path d="M69.2408 5.90891C69.1385 5.04528 68.7237 4.37482 67.9964 3.89755C67.2692 3.42028 66.3771 3.18164 65.3203 3.18164C64.5476 3.18164 63.8715 3.30664 63.2919 3.55664C62.718 3.80664 62.2692 4.15039 61.9453 4.58789C61.6271 5.02539 61.468 5.52255 61.468 6.07937C61.468 6.54528 61.5788 6.94585 61.8004 7.28107C62.0277 7.61062 62.3175 7.88619 62.6697 8.10778C63.022 8.32369 63.3913 8.50266 63.7777 8.64471C64.1641 8.78107 64.5192 8.89187 64.843 8.9771L66.6158 9.45437C67.0703 9.57369 67.576 9.73846 68.1328 9.94869C68.6953 10.1589 69.2322 10.4458 69.7436 10.8095C70.2607 11.1674 70.6868 11.6277 71.022 12.1902C71.3572 12.7527 71.5249 13.443 71.5249 14.2612C71.5249 15.2044 71.2777 16.0566 70.7834 16.818C70.2947 17.5794 69.5788 18.1845 68.6357 18.6333C67.6982 19.0822 66.5589 19.3066 65.218 19.3066C63.968 19.3066 62.8857 19.1049 61.9709 18.7015C61.0618 18.2981 60.3459 17.7356 59.8232 17.014C59.3061 16.2924 59.0135 15.4544 58.9453 14.4998H61.1271C61.184 15.1589 61.4055 15.7044 61.7919 16.1362C62.1839 16.5623 62.6783 16.8805 63.2749 17.0907C63.8771 17.2953 64.5249 17.3976 65.218 17.3976C66.0249 17.3976 66.7493 17.2669 67.3913 17.0055C68.0334 16.7385 68.5419 16.3691 68.9169 15.8976C69.2919 15.4203 69.4794 14.8635 69.4794 14.2271C69.4794 13.6476 69.3175 13.176 68.9936 12.8123C68.6697 12.4487 68.2436 12.1532 67.7152 11.926C67.1868 11.6987 66.6158 11.4998 66.0021 11.3294L63.8544 10.7157C62.4908 10.3237 61.4112 9.76403 60.6158 9.03676C59.8203 8.30948 59.4226 7.35778 59.4226 6.18164C59.4226 5.20437 59.6868 4.3521 60.2152 3.62482C60.7493 2.89187 61.4652 2.32369 62.3629 1.92028C63.2663 1.51119 64.2749 1.30664 65.3885 1.30664C66.5135 1.30664 67.5135 1.50835 68.3885 1.91175C69.2635 2.30948 69.9567 2.85494 70.468 3.54812C70.9851 4.2413 71.2578 5.02823 71.2862 5.90891H69.2408Z" fill="black"/>
<path d="M54.8825 9.33496V11.21H47.2461V9.33496H54.8825Z" fill="black"/>
<path d="M33.9222 1.54541L38.4222 8.80677H38.5586L43.0586 1.54541H45.5472L40.0586 10.2727L45.5472 18.9999H43.0586L38.5586 11.8749H38.4222L33.9222 18.9999H31.4336L37.0586 10.2727L31.4336 1.54541H33.9222Z" fill="black"/>
<path d="M17.5547 18.9999V1.54541H28.0888V3.42041H19.6683V9.31814H27.5433V11.1931H19.6683V17.1249H28.2251V18.9999H17.5547Z" fill="black"/>
<path d="M10.7955 5.90891C10.6932 5.04528 10.2784 4.37482 9.55114 3.89755C8.82386 3.42028 7.93182 3.18164 6.875 3.18164C6.10227 3.18164 5.42614 3.30664 4.84659 3.55664C4.27273 3.80664 3.82386 4.15039 3.5 4.58789C3.18182 5.02539 3.02273 5.52255 3.02273 6.07937C3.02273 6.54528 3.13352 6.94585 3.35511 7.28107C3.58239 7.61062 3.87216 7.88619 4.22443 8.10778C4.5767 8.32369 4.94602 8.50266 5.33239 8.64471C5.71875 8.78107 6.07386 8.89187 6.39773 8.9771L8.17045 9.45437C8.625 9.57369 9.13068 9.73846 9.6875 9.94869C10.25 10.1589 10.7869 10.4458 11.2983 10.8095C11.8153 11.1674 12.2415 11.6277 12.5767 12.1902C12.9119 12.7527 13.0795 13.443 13.0795 14.2612C13.0795 15.2044 12.8324 16.0566 12.3381 16.818C11.8494 17.5794 11.1335 18.1845 10.1903 18.6333C9.25284 19.0822 8.11364 19.3066 6.77273 19.3066C5.52273 19.3066 4.44034 19.1049 3.52557 18.7015C2.61648 18.2981 1.90057 17.7356 1.37784 17.014C0.860796 16.2924 0.568182 15.4544 0.5 14.4998H2.68182C2.73864 15.1589 2.96023 15.7044 3.34659 16.1362C3.73864 16.5623 4.23295 16.8805 4.82955 17.0907C5.43182 17.2953 6.07955 17.3976 6.77273 17.3976C7.57955 17.3976 8.30398 17.2669 8.94602 17.0055C9.58807 16.7385 10.0966 16.3691 10.4716 15.8976C10.8466 15.4203 11.0341 14.8635 11.0341 14.2271C11.0341 13.6476 10.8722 13.176 10.5483 12.8123C10.2244 12.4487 9.7983 12.1532 9.26989 11.926C8.74148 11.6987 8.17045 11.4998 7.55682 11.3294L5.40909 10.7157C4.04545 10.3237 2.96591 9.76403 2.17045 9.03676C1.375 8.30948 0.977273 7.35778 0.977273 6.18164C0.977273 5.20437 1.24148 4.3521 1.76989 3.62482C2.30398 2.89187 3.01989 2.32369 3.91761 1.92028C4.82102 1.51119 5.82955 1.30664 6.94318 1.30664C8.06818 1.30664 9.06818 1.50835 9.94318 1.91175C10.8182 2.30948 11.5114 2.85494 12.0227 3.54812C12.5398 4.2413 12.8125 5.02823 12.8409 5.90891H10.7955Z" fill="black"/>
</g>
<defs>
<clipPath id="clip0_2147_19536">
<rect width="130" height="20" fill="white" transform="translate(0.5)"/>
</clipPath>
</defs>
</svg>
