<svg width="21" height="20" viewBox="0 0 21 20" fill="none" xmlns="http://www.w3.org/2000/svg">
<path d="M10.1964 20C10.1042 20 10.0213 19.9459 9.9866 19.8631L8.54799 16.4321C8.51626 16.3565 8.53031 16.2701 8.58447 16.2077C8.63864 16.1453 8.72385 16.1171 8.80611 16.1345C9.72235 16.3284 10.6703 16.3284 11.587 16.1345C11.6693 16.1169 11.7547 16.1455 11.8087 16.2077C11.8628 16.2699 11.8771 16.3565 11.8454 16.4321L10.4065 19.8631C10.3716 19.9459 10.2887 20 10.1964 20Z" fill="#FFB200"/>
<path d="M3.76423 11.7244C3.73545 11.7244 3.70644 11.7191 3.67879 11.7084L0.141187 10.3129C0.0559762 10.279 0 10.1986 0 10.1091C0 10.0197 0.0559762 9.93925 0.141413 9.90562L3.67902 8.51037C3.75675 8.4796 3.84604 8.49323 3.9104 8.54576C3.97476 8.59829 4.00377 8.68115 3.98587 8.76072C3.88592 9.20492 3.83516 9.65879 3.83516 10.1091C3.83516 10.5595 3.88592 11.0132 3.98587 11.4578C4.00377 11.5374 3.97476 11.6202 3.9104 11.6728C3.8687 11.7068 3.8168 11.7244 3.76423 11.7244Z" fill="#FFB200"/>
<path d="M3.14659 17.167C3.08767 17.167 3.02965 17.1446 2.98637 17.1026C2.9211 17.0393 2.90183 16.9441 2.93787 16.8617L4.42203 13.4492C4.45466 13.374 4.52764 13.3226 4.61126 13.3158C4.69511 13.3063 4.77602 13.3474 4.82134 13.416C5.07493 13.7989 5.37 14.1545 5.69792 14.4728C6.02562 14.7906 6.39207 15.0766 6.78776 15.323C6.85847 15.3671 6.89835 15.4456 6.8911 15.5269C6.88385 15.608 6.83082 15.6788 6.75354 15.7107L3.23475 17.1501C3.20619 17.1615 3.1765 17.167 3.14659 17.167Z" fill="#FFB200"/>
<path fill-rule="evenodd" clip-rule="evenodd" d="M15.9928 15.0479L18.1721 14.9747C18.4318 14.9661 18.6378 14.7532 18.6324 14.4997C18.6273 14.2458 18.4114 14.0473 18.1526 14.0559L15.0765 14.1592L15.9928 15.0479ZM13.1511 12.2918L15.6962 11.8911C15.8807 11.8621 16.0314 11.7296 16.0808 11.5535C16.1302 11.3774 16.0689 11.1906 15.9245 11.0774L13.8838 9.47873L16.5068 8.77626L19.1851 10.3756C19.2246 10.3993 19.2666 10.4165 19.3095 10.4274C19.5046 10.4774 19.7201 10.3986 19.8329 10.2209C19.9704 10.0037 19.9033 9.72133 19.683 9.58963L17.7594 8.4408L19.9904 7.8432C20.2418 7.77599 20.3922 7.52305 20.3268 7.27825C20.2609 7.03333 20.0042 6.88901 19.7531 6.957L17.5221 7.5546L18.6144 5.59821C18.7394 5.37405 18.6564 5.09591 18.4289 4.97668C18.2022 4.85741 17.9155 4.94226 17.7905 5.1662L16.2697 7.89012L13.647 8.59242L14.6158 6.18787C14.6844 6.01766 14.6441 5.82529 14.5133 5.69744C14.3825 5.5696 14.1862 5.52984 14.0114 5.59709L11.5505 6.54337L12.2696 3.98008L15.0567 2.49438C15.286 2.37221 15.3729 2.09277 15.251 1.8702C15.1287 1.64779 14.8444 1.56646 14.6151 1.68862L12.613 2.7559L13.2246 0.575685C13.2935 0.330227 13.1463 0.0790325 12.896 0.0149825C12.6457 -0.0490675 12.3868 0.098162 12.3179 0.34362L11.7062 2.52406L10.5313 0.643902C10.3968 0.428621 10.1076 0.363176 9.88527 0.497397C9.66313 0.631897 9.59217 0.915181 9.72679 1.13074L11.3628 3.74823L10.6437 6.31153L9.00841 4.31689C8.8923 4.17565 8.70158 4.11588 8.52115 4.16406C8.34072 4.21225 8.20534 4.35966 8.17569 4.53985L7.7596 7.06282L8.57874 7.85727L8.93389 5.70497L10.4827 7.59406C10.4834 7.59496 10.4843 7.59559 10.4851 7.59623C10.486 7.59687 10.4868 7.5975 10.4876 7.5984C10.5151 7.63095 10.5478 7.65909 10.584 7.68337C10.5899 7.6874 10.596 7.69099 10.6022 7.69465C10.6036 7.69551 10.6051 7.69638 10.6066 7.69725C10.6435 7.71886 10.6825 7.73742 10.7263 7.74862C10.77 7.75982 10.8138 7.76243 10.8568 7.7613C10.8586 7.76124 10.8603 7.76119 10.862 7.76114C10.8693 7.76093 10.8764 7.76072 10.8837 7.76007C10.9279 7.75639 10.9709 7.74784 11.0116 7.73253C11.0126 7.73225 11.0135 7.73211 11.0145 7.73196C11.0157 7.73177 11.0169 7.73158 11.0181 7.73109L13.3483 6.83478L12.431 9.11214C12.4302 9.11409 12.4304 9.11604 12.4296 9.11798C12.4141 9.15785 12.4052 9.1999 12.4013 9.24322C12.4004 9.2523 12.4002 9.26083 12.4001 9.26986C12.399 9.31199 12.4016 9.3546 12.4132 9.39735C12.4252 9.44212 12.4447 9.48262 12.4682 9.52009C12.472 9.52604 12.4766 9.53139 12.4812 9.53677C12.4845 9.54068 12.4879 9.5446 12.491 9.5488C12.5112 9.57565 12.5329 9.60028 12.5582 9.62177C12.5606 9.62378 12.5625 9.62616 12.5644 9.62856C12.5664 9.63109 12.5684 9.63364 12.5711 9.63578L14.504 11.1499L12.3271 11.4927L13.1511 12.2918ZM5.85247 5.21318L5.96095 2.13884C5.96991 1.8852 5.76751 1.67565 5.50725 1.6698C5.24782 1.66441 5.03007 1.86557 5.02128 2.11949L4.94328 4.33139L5.85247 5.21318ZM4.3899 3.79469L3.32373 2.7526C3.30544 2.73468 3.286 2.71858 3.26562 2.7043L4.3899 3.79469Z" fill="#058CDD"/>
<path fill-rule="evenodd" clip-rule="evenodd" d="M14.1041 13.1991L6.73666 6.05371C5.76692 6.97226 5.16406 8.25364 5.16406 9.66897C5.16406 12.4566 7.50237 14.7242 10.3764 14.7242C11.8359 14.7242 13.157 14.1396 14.1041 13.1991Z" fill="#FFB200"/>
<path fill-rule="evenodd" clip-rule="evenodd" d="M14.8086 14.3936C14.4968 14.6879 14.1511 14.9542 13.78 15.1854C13.7093 15.2296 13.6694 15.308 13.6766 15.3894C13.6837 15.4705 13.7367 15.5412 13.8142 15.5731L17.3328 17.0125C17.3613 17.0242 17.3912 17.0297 17.4209 17.0297C17.4511 17.0297 17.481 17.0239 17.5089 17.0125L14.8086 14.3936Z" fill="#FFB200"/>
<path fill-rule="evenodd" clip-rule="evenodd" d="M3.11232 3.05127C3.09023 3.10419 3.08971 3.16457 3.1135 3.21932L4.59766 6.63206C4.63029 6.70701 4.70327 6.75844 4.78712 6.76547C4.79346 6.76613 4.80003 6.76635 4.80638 6.76635C4.88298 6.76635 4.95505 6.72855 4.99697 6.66524C5.23429 6.3064 5.5082 5.97186 5.81161 5.6692L3.11232 3.05127Z" fill="#FFB200"/>
</svg>
