<svg width="24" height="25" viewBox="0 0 24 25" fill="none" xmlns="http://www.w3.org/2000/svg">
<path fill-rule="evenodd" clip-rule="evenodd" d="M2 12.75C2 7.365 6.365 3 11.75 3C17.135 3 21.5 7.365 21.5 12.75C21.5 18.135 17.135 22.5 11.75 22.5C6.365 22.5 2 18.135 2 12.75ZM15.36 10.936C15.42 10.8561 15.4634 10.7649 15.4877 10.6679C15.512 10.571 15.5166 10.4701 15.5014 10.3714C15.4861 10.2726 15.4512 10.1778 15.3989 10.0927C15.3465 10.0076 15.2776 9.93378 15.1963 9.87565C15.1149 9.81753 15.0228 9.77624 14.9253 9.75423C14.8278 9.73221 14.7269 9.72991 14.6285 9.74746C14.5301 9.76501 14.4362 9.80205 14.3523 9.85641C14.2684 9.91077 14.1962 9.98135 14.14 10.064L10.904 14.594L9.28 12.97C9.13783 12.8375 8.94978 12.7654 8.75548 12.7688C8.56118 12.7723 8.37579 12.851 8.23838 12.9884C8.10097 13.1258 8.02225 13.3112 8.01882 13.5055C8.0154 13.6998 8.08752 13.8878 8.22 14.03L10.47 16.28C10.547 16.3569 10.6398 16.4162 10.742 16.4536C10.8442 16.4911 10.9533 16.5059 11.0618 16.4969C11.1702 16.488 11.2755 16.4555 11.3701 16.4019C11.4648 16.3482 11.5467 16.2745 11.61 16.186L15.36 10.936Z" fill="black"/>
</svg>
