<svg width="20" height="20" viewBox="0 0 20 20" fill="none" xmlns="http://www.w3.org/2000/svg">
<path d="M9.99935 9.63525L8.7181 10.6561C8.6556 10.6978 8.59484 10.6995 8.53581 10.6613C8.47678 10.6231 8.45768 10.5693 8.47852 10.4998L8.95768 8.854L7.70768 8.01025C7.63824 7.96859 7.61914 7.9113 7.65039 7.83838C7.68164 7.76546 7.73546 7.729 7.81185 7.729H9.37435L9.86393 6.05192C9.88477 5.98248 9.9299 5.94775 9.99935 5.94775C10.0688 5.94775 10.1139 5.98248 10.1348 6.05192L10.6243 7.729H12.1973C12.2667 7.729 12.3171 7.76546 12.3483 7.83838C12.3796 7.9113 12.3605 7.96859 12.291 8.01025L11.0514 8.854L11.5306 10.4998C11.5514 10.5693 11.5323 10.6231 11.4733 10.6613C11.4143 10.6995 11.3535 10.6978 11.291 10.6561L9.99935 9.63525ZM9.99935 16.2707L6.91602 17.1561C6.72157 17.2186 6.54622 17.1873 6.38997 17.0623C6.23372 16.9373 6.1556 16.7741 6.1556 16.5728V12.2394C5.63477 11.7394 5.23025 11.1544 4.94206 10.4842C4.65386 9.81407 4.50977 9.10053 4.50977 8.34359C4.50977 6.81581 5.04275 5.51893 6.10872 4.45296C7.1747 3.38699 8.47157 2.854 9.99935 2.854C11.5271 2.854 12.824 3.38699 13.89 4.45296C14.9559 5.51893 15.4889 6.81581 15.4889 8.34359C15.4889 9.10053 15.3448 9.81407 15.0566 10.4842C14.7684 11.1544 14.3639 11.7394 13.8431 12.2394V16.5728C13.8431 16.7741 13.765 16.9373 13.6087 17.0623C13.4525 17.1873 13.2806 17.2186 13.0931 17.1561L9.99935 16.2707ZM9.99935 13.3019C11.3813 13.3019 12.5532 12.821 13.515 11.8592C14.4768 10.8974 14.9577 9.72553 14.9577 8.34359C14.9577 6.96164 14.4768 5.78977 13.515 4.82796C12.5532 3.86616 11.3813 3.38525 9.99935 3.38525C8.6174 3.38525 7.44553 3.86616 6.48372 4.82796C5.52192 5.78977 5.04102 6.96164 5.04102 8.34359C5.04102 9.72553 5.52192 10.8974 6.48372 11.8592C7.44553 12.821 8.6174 13.3019 9.99935 13.3019Z" fill="black"/>
</svg>
