<svg width="55" height="55" viewBox="0 0 55 55" fill="none" xmlns="http://www.w3.org/2000/svg">
<path d="M41.2823 17C41.2823 24.8934 35.096 31.25 27.5161 31.25C19.9363 31.25 13.75 24.8934 13.75 17C13.75 9.10657 19.9363 2.75 27.5161 2.75C35.096 2.75 41.2823 9.10657 41.2823 17Z" stroke="black" stroke-width="1.5"/>
<path d="M26.2447 19.5452V19.2353C26.2482 18.6308 26.3099 18.1392 26.4296 17.7604C26.5493 17.3816 26.7254 17.0622 26.9577 16.802C27.1937 16.538 27.4859 16.2855 27.8345 16.0445C28.0951 15.8608 28.3134 15.6676 28.4894 15.4648C28.669 15.2582 28.8046 15.0325 28.8961 14.7877C28.9912 14.539 29.0387 14.2692 29.0387 13.9785C29.0387 13.5653 28.9489 13.2037 28.7694 12.8938C28.5933 12.5839 28.3539 12.3448 28.0511 12.1765C27.7482 12.0043 27.412 11.9182 27.0423 11.9182C26.6901 11.9182 26.3609 12.0024 26.0546 12.1707C25.7518 12.3352 25.5035 12.5801 25.3099 12.9053C25.1197 13.2267 25.0158 13.6246 24.9982 14.099H24C24.0176 13.4677 24.162 12.9206 24.4331 12.4577C24.7042 11.9947 25.0669 11.637 25.5211 11.3845C25.9754 11.1282 26.4824 11 27.0423 11C27.6268 11 28.1408 11.132 28.5845 11.396C29.0282 11.6561 29.375 12.0139 29.625 12.4692C29.875 12.9206 30 13.439 30 14.0244C30 14.4108 29.9437 14.7628 29.831 15.0803C29.7183 15.3979 29.5493 15.6906 29.3239 15.9584C29.1021 16.2262 28.8239 16.4787 28.4894 16.7159C28.1725 16.9455 27.9208 17.1731 27.7342 17.3989C27.5475 17.6246 27.4137 17.8828 27.3327 18.1736C27.2518 18.4605 27.2077 18.8144 27.2007 19.2353V19.5452H26.2447ZM26.7518 23C26.544 23 26.3644 22.9197 26.213 22.759C26.0651 22.5945 25.9912 22.3993 25.9912 22.1736C25.9912 21.944 26.0651 21.7489 26.213 21.5882C26.3644 21.4275 26.544 21.3472 26.7518 21.3472C26.9595 21.3472 27.1373 21.4275 27.2852 21.5882C27.4366 21.7489 27.5123 21.944 27.5123 22.1736C27.5123 22.3228 27.4771 22.4605 27.4067 22.5868C27.3398 22.7131 27.2482 22.8144 27.132 22.891C27.0194 22.9637 26.8926 23 26.7518 23Z" fill="black"/>
<path d="M5.75 50C5.75 43.7868 10.7868 38.75 17 38.75H38C44.2132 38.75 49.25 43.7868 49.25 50V52.25H5.75V50Z" stroke="black" stroke-width="1.5"/>
</svg>
