<svg width="30" height="30" viewBox="0 0 30 30" fill="none" xmlns="http://www.w3.org/2000/svg">
<path d="M26.3909 10.1413C26.3909 10.1413 26.5624 8.84917 27.8784 8.06289C27.3778 7.68376 27.2634 7.66945 27.2634 7.66945C27.2634 7.66945 26.6769 8.14694 26.5624 8.39969C26.5482 8.17526 26.6769 7.68345 26.9486 7.4307C27.1204 7.27631 26.0618 7.12161 25.876 7.20596C25.6899 7.29001 25.4468 7.83785 25.4325 7.9222C25.4179 8.00625 25.1177 8.02026 25.2036 7.90819C25.2895 7.79613 25.5184 7.41669 25.6329 7.30432C25.6329 7.30432 25.0606 7.26199 25.0035 7.29031C24.9465 7.31863 24.4456 8.13293 24.3885 8.39969C23.5588 8.25931 22.6293 7.55708 22.2146 7.54307C21.7996 7.52906 21.9714 7.78181 21.2562 7.71177C21.3703 7.14993 21.4277 6.61641 21.3275 6.18094C21.3275 6.18094 19.0674 2.23493 12.4736 2.38932C11.9156 2.38932 12.0158 3.58305 12.8167 3.97619C12.8167 3.97619 12.1852 5.15591 12.1219 5.21225C12.0586 5.26828 11.4578 5.1279 11.1719 4.60838C10.8859 4.08856 6.93815 1.16727 6.29457 1.01288C5.65098 0.858486 4.12064 2.13626 4.00619 2.48738C3.89174 2.83849 5.39355 3.8355 6.06567 3.89184C6.42918 3.92199 6.30884 3.65309 6.5092 3.77947C7.32431 4.1586 9.47001 6.29331 9.69891 10.5764C9.75288 11.6913 10.0565 12.758 9.17939 14.7615C8.68344 15.9972 8.20672 19.798 8.51192 21.1464C8.81712 22.4945 9.12232 24.8351 12.7267 26.277C12.5167 27.3444 12.4215 28 12.4215 28L14.9391 24.2739C14.9391 24.2739 14.958 23.9368 14.5765 23.8433C14.1953 23.7492 13.1845 21.4089 13.375 21.1839C14.2022 20.1442 16.1211 18.3753 16.8841 18.001C17.5758 18.9155 18.5382 20.7676 18.524 21.1839C18.5097 21.6008 20.0828 22.2326 20.741 21.8535C20.8551 21.7835 22.4717 20.1966 22.1854 18.1179C21.6563 18.216 21.2844 18.413 21.1557 18.5111C21.3275 17.8792 21.3846 14.4947 20.9696 14.0172C20.5549 13.5397 19.3819 13.8628 19.2103 13.9469C19.3533 13.7502 19.6108 12.6971 19.4389 12.5004C19.2674 12.3037 21.4987 10.5624 22.0282 10.4781C22.5573 10.394 24.7315 10.8572 25.1031 11.1383C25.5612 11.0959 26.6623 11.0399 27.2345 11.2083C27.2345 11.2083 27.4489 10.3657 27.3633 10.141C27.3636 10.0146 26.3909 10.1413 26.3909 10.1413ZM15.4059 11.3067C14.9053 11.2787 14.5477 10.3797 14.5049 10.2813C14.691 10.3657 15.8758 10.754 16.1497 10.8012C16.3354 10.9135 15.9065 11.3347 15.4059 11.3067ZM18.7671 11.405C18.381 11.5034 17.7749 11.0868 18.0234 11.0399C18.3354 10.9808 19.0819 10.7872 19.3394 10.6888C19.5968 10.5904 19.1533 11.3067 18.7671 11.405Z" fill="black"/>
</svg>
