<svg width="130" height="20" viewBox="0 0 130 20" fill="none" xmlns="http://www.w3.org/2000/svg">
<path fill-rule="evenodd" clip-rule="evenodd" d="M103.637 20C109.16 20 113.637 15.5228 113.637 10C113.637 4.47715 109.16 0 103.637 0C98.1139 0 93.6367 4.47715 93.6367 10C93.6367 15.5228 98.1139 20 103.637 20ZM103.5 14.9751C106.261 14.9751 108.5 12.7365 108.5 9.9751C108.5 7.21367 106.261 4.9751 103.5 4.9751C100.739 4.9751 98.5 7.21367 98.5 9.9751C98.5 12.7365 100.739 14.9751 103.5 14.9751Z" fill="#FF62D5"/>
<path d="M117.516 18.9998V1.54529H123.413C124.783 1.54529 125.902 1.79245 126.771 2.28677C127.646 2.7754 128.294 3.43733 128.714 4.27256C129.135 5.10779 129.345 6.03961 129.345 7.06802C129.345 8.09643 129.135 9.03108 128.714 9.87199C128.3 10.7129 127.658 11.3834 126.788 11.8834C125.919 12.3777 124.805 12.6248 123.447 12.6248H119.22V10.7498H123.379C124.317 10.7498 125.07 10.5879 125.638 10.264C126.206 9.94017 126.618 9.50267 126.874 8.95154C127.135 8.39472 127.266 7.76688 127.266 7.06802C127.266 6.36915 127.135 5.74415 126.874 5.19302C126.618 4.64188 126.203 4.21006 125.629 3.89756C125.055 3.57938 124.294 3.42029 123.345 3.42029H119.629V18.9998H117.516Z" fill="white"/>
<path d="M75.5 18.9998V1.54529H77.6136V9.31802H86.9204V1.54529H89.0341V18.9998H86.9204V11.193H77.6136V18.9998H75.5Z" fill="white"/>
<path d="M68.7408 5.90891C68.6385 5.04528 68.2237 4.37482 67.4964 3.89755C66.7692 3.42028 65.8771 3.18164 64.8203 3.18164C64.0476 3.18164 63.3715 3.30664 62.7919 3.55664C62.218 3.80664 61.7692 4.15039 61.4453 4.58789C61.1271 5.02539 60.968 5.52255 60.968 6.07937C60.968 6.54528 61.0788 6.94585 61.3004 7.28107C61.5277 7.61062 61.8175 7.88619 62.1697 8.10778C62.522 8.32369 62.8913 8.50266 63.2777 8.64471C63.6641 8.78107 64.0192 8.89187 64.343 8.9771L66.1158 9.45437C66.5703 9.57369 67.076 9.73846 67.6328 9.94869C68.1953 10.1589 68.7322 10.4458 69.2436 10.8095C69.7607 11.1674 70.1868 11.6277 70.522 12.1902C70.8572 12.7527 71.0249 13.443 71.0249 14.2612C71.0249 15.2044 70.7777 16.0566 70.2834 16.818C69.7947 17.5794 69.0788 18.1845 68.1357 18.6333C67.1982 19.0822 66.0589 19.3066 64.718 19.3066C63.468 19.3066 62.3857 19.1049 61.4709 18.7015C60.5618 18.2981 59.8459 17.7356 59.3232 17.014C58.8061 16.2924 58.5135 15.4544 58.4453 14.4998H60.6271C60.684 15.1589 60.9055 15.7044 61.2919 16.1362C61.6839 16.5623 62.1783 16.8805 62.7749 17.0907C63.3771 17.2953 64.0249 17.3976 64.718 17.3976C65.5249 17.3976 66.2493 17.2669 66.8913 17.0055C67.5334 16.7385 68.0419 16.3691 68.4169 15.8976C68.7919 15.4203 68.9794 14.8635 68.9794 14.2271C68.9794 13.6476 68.8175 13.176 68.4936 12.8123C68.1697 12.4487 67.7436 12.1532 67.2152 11.926C66.6868 11.6987 66.1158 11.4998 65.5021 11.3294L63.3544 10.7157C61.9908 10.3237 60.9112 9.76403 60.1158 9.03676C59.3203 8.30948 58.9226 7.35778 58.9226 6.18164C58.9226 5.20437 59.1868 4.3521 59.7152 3.62482C60.2493 2.89187 60.9652 2.32369 61.8629 1.92028C62.7663 1.51119 63.7749 1.30664 64.8885 1.30664C66.0135 1.30664 67.0135 1.50835 67.8885 1.91175C68.7635 2.30948 69.4567 2.85494 69.968 3.54812C70.4851 4.2413 70.7578 5.02823 70.7862 5.90891H68.7408Z" fill="white"/>
<path d="M54.3825 9.33508V11.2101H46.7461V9.33508H54.3825Z" fill="white"/>
<path d="M33.4222 1.54529L37.9222 8.80665H38.0586L42.5586 1.54529H45.0472L39.5586 10.2726L45.0472 18.9998H42.5586L38.0586 11.8748H37.9222L33.4222 18.9998H30.9336L36.5586 10.2726L30.9336 1.54529H33.4222Z" fill="white"/>
<path d="M17.0547 18.9998V1.54529H27.5888V3.42029H19.1683V9.31802H27.0433V11.193H19.1683V17.1248H27.7251V18.9998H17.0547Z" fill="white"/>
<path d="M10.2955 5.90891C10.1932 5.04528 9.77841 4.37482 9.05114 3.89755C8.32386 3.42028 7.43182 3.18164 6.375 3.18164C5.60227 3.18164 4.92614 3.30664 4.34659 3.55664C3.77273 3.80664 3.32386 4.15039 3 4.58789C2.68182 5.02539 2.52273 5.52255 2.52273 6.07937C2.52273 6.54528 2.63352 6.94585 2.85511 7.28107C3.08239 7.61062 3.37216 7.88619 3.72443 8.10778C4.0767 8.32369 4.44602 8.50266 4.83239 8.64471C5.21875 8.78107 5.57386 8.89187 5.89773 8.9771L7.67045 9.45437C8.125 9.57369 8.63068 9.73846 9.1875 9.94869C9.75 10.1589 10.2869 10.4458 10.7983 10.8095C11.3153 11.1674 11.7415 11.6277 12.0767 12.1902C12.4119 12.7527 12.5795 13.443 12.5795 14.2612C12.5795 15.2044 12.3324 16.0566 11.8381 16.818C11.3494 17.5794 10.6335 18.1845 9.69034 18.6333C8.75284 19.0822 7.61364 19.3066 6.27273 19.3066C5.02273 19.3066 3.94034 19.1049 3.02557 18.7015C2.11648 18.2981 1.40057 17.7356 0.877841 17.014C0.360796 16.2924 0.0681818 15.4544 0 14.4998H2.18182C2.23864 15.1589 2.46023 15.7044 2.84659 16.1362C3.23864 16.5623 3.73295 16.8805 4.32955 17.0907C4.93182 17.2953 5.57955 17.3976 6.27273 17.3976C7.07955 17.3976 7.80398 17.2669 8.44602 17.0055C9.08807 16.7385 9.59659 16.3691 9.97159 15.8976C10.3466 15.4203 10.5341 14.8635 10.5341 14.2271C10.5341 13.6476 10.3722 13.176 10.0483 12.8123C9.72443 12.4487 9.2983 12.1532 8.76989 11.926C8.24148 11.6987 7.67045 11.4998 7.05682 11.3294L4.90909 10.7157C3.54545 10.3237 2.46591 9.76403 1.67045 9.03676C0.875 8.30948 0.477273 7.35778 0.477273 6.18164C0.477273 5.20437 0.741477 4.3521 1.26989 3.62482C1.80398 2.89187 2.51989 2.32369 3.41761 1.92028C4.32102 1.51119 5.32955 1.30664 6.44318 1.30664C7.56818 1.30664 8.56818 1.50835 9.44318 1.91175C10.3182 2.30948 11.0114 2.85494 11.5227 3.54812C12.0398 4.2413 12.3125 5.02823 12.3409 5.90891H10.2955Z" fill="white"/>
</svg>
